<svg xmlns="http://www.w3.org/2000/svg" viewBox="0 0 20 20"><defs><style>.cls-1{fill:#fff;}</style></defs><title>2</title><g id="Layer_2" data-name="Layer 2"><g id="Layer_1-2" data-name="Layer 1"><path class="cls-1" d="M19.58,17.4,18,18.94a3.55,3.55,0,0,1-3,1,17.63,17.63,0,0,1-9.73-5.29A17.58,17.58,0,0,1,0,5a3.56,3.56,0,0,1,1-3L2.6.42a1.45,1.45,0,0,1,2,0L8,3.82a1.43,1.43,0,0,1,.43,1,1.4,1.4,0,0,1-.43,1L6.16,7.72l6.12,6.11L14.15,12a1.42,1.42,0,0,1,2,0l3.4,3.39A1.45,1.45,0,0,1,19.58,17.4Z"/></g></g></svg>