<svg xmlns="http://www.w3.org/2000/svg" xmlns:xlink="http://www.w3.org/1999/xlink" viewBox="0 0 219.32 219.32"><defs><style>.cls-1{fill:url(#linear-gradient);}.cls-2{fill:#fff;}</style><linearGradient id="linear-gradient" x1="32.12" y1="32.12" x2="187.2" y2="187.2" gradientUnits="userSpaceOnUse"><stop offset="0" stop-color="#4676ed"/><stop offset="0.19" stop-color="#436de4"/><stop offset="0.49" stop-color="#3c55cd"/><stop offset="0.87" stop-color="#302ea8"/><stop offset="1" stop-color="#2b1e99"/></linearGradient></defs><title>Asset 2</title><g id="Layer_2" data-name="Layer 2"><g id="ELEMENTS"><path class="cls-1" d="M219.32,109.66A109.66,109.66,0,1,0,92.53,218V141.36H64.68v-31.7H92.53V85.5C92.53,58,108.9,42.84,134,42.84A168.75,168.75,0,0,1,158.49,45V72H144.67C131,72,126.8,80.42,126.8,89.09v20.57h30.41l-4.86,31.7H126.8V218A109.69,109.69,0,0,0,219.32,109.66Z"/><path class="cls-2" d="M152.35,141.36l4.86-31.7H126.8V89.09C126.8,80.42,131,72,144.67,72h13.82V45A168.75,168.75,0,0,0,134,42.84c-25,0-41.42,15.18-41.42,42.66v24.16H64.68v31.7H92.53V218a111,111,0,0,0,34.27,0V141.36Z"/></g></g></svg>