<svg xmlns="http://www.w3.org/2000/svg" viewBox="0 0 37.41 25"><defs><style>.cls-1{fill:#fff;}</style></defs><title>Asset 1</title><g id="Layer_2" data-name="Layer 2"><g id="Layer_1-2" data-name="Layer 1"><path class="cls-1" d="M35.71,25H1.7A1.7,1.7,0,0,1,0,23.3V1.7A1.7,1.7,0,0,1,1.7,0h34a1.7,1.7,0,0,1,1.7,1.7V23.3A1.7,1.7,0,0,1,35.71,25ZM1.7,1.13a.58.58,0,0,0-.57.57V23.3a.58.58,0,0,0,.57.57h34a.57.57,0,0,0,.56-.57V1.7a.57.57,0,0,0-.56-.57Z"/><path class="cls-1" d="M18.7,16.42A1.73,1.73,0,0,1,17.59,16L.73,1.46A.57.57,0,0,1,1.48.6L18.33,15.15a.57.57,0,0,0,.74,0L35.93.6a.57.57,0,1,1,.74.86L19.81,16A1.69,1.69,0,0,1,18.7,16.42Z"/><path class="cls-1" d="M36.3,24.54a.59.59,0,0,1-.37-.14L22.64,12.93a.57.57,0,0,1-.06-.8.58.58,0,0,1,.8-.06L36.67,23.54a.57.57,0,0,1-.37,1Z"/><path class="cls-1" d="M1.11,24.54a.57.57,0,0,1-.38-1L14,12.07a.57.57,0,0,1,.74.86L1.48,24.4A.59.59,0,0,1,1.11,24.54Z"/></g></g></svg>