<svg xmlns="http://www.w3.org/2000/svg" viewBox="0 0 62.08 100"><defs><style>.cls-1{fill:#fff;}</style></defs><title>baby</title><g id="Layer_2" data-name="Layer 2"><g id="Layer_1-2" data-name="Layer 1"><path class="cls-1" d="M12.38,76.48A15.56,15.56,0,0,1,9.9,76.2c-3-.76-4.42-3.42-3.69-6.67a11.23,11.23,0,0,1,3.16-5.75c1.07-1,2.16-2,3.37-3.18a1.51,1.51,0,0,1-.33-.13A23.78,23.78,0,0,1,5.71,53a.89.89,0,0,0-.94-.52A4.77,4.77,0,0,1,0,48.12a3,3,0,0,1,1.52-2.86,1,1,0,0,0,.55-1.11A35.28,35.28,0,0,1,3.31,31.63C5,26,8.76,22.07,13.56,19a32.82,32.82,0,0,1,4.55-2.29c.61-.28.92-.55.84-1.23A5.52,5.52,0,0,1,19,14.43c-.45-.18-.88-.32-1.29-.52a8.51,8.51,0,0,1-4.28-3.84,70.83,70.83,0,0,1-2.78-7.14,3,3,0,0,1,.06-1.67A1.69,1.69,0,0,1,13,.09a1,1,0,0,1,.24.07C15.41,1.52,18,1.68,20.43,2.41c.93.27,1.84.61,2.75,1a8.11,8.11,0,0,1,5.36,6.77,1.32,1.32,0,0,0,1.17,1.32,3.18,3.18,0,0,1,2.51,2.86c.1.64.37.81,1,.93A28.52,28.52,0,0,1,51.25,26.66c3.14,4.37,4.26,9.4,4.25,14.72v1s.06.1.1.12c1.88.76,2.48,2,1.86,3.93a4.73,4.73,0,0,1-4.12,3.31c-.54.09-.64.34-.8.69A24.31,24.31,0,0,1,42,61.73c-.45.24-.91.46-1.47.75.21.11.32.19.45.24A22.76,22.76,0,0,1,55.58,78.53c.29,1,.73,1.52,1.76,1.61,3.08.29,5,3.46,4.72,6.55a10.62,10.62,0,0,1-5.88,8.93,26.71,26.71,0,0,1-10.12,2.7c-1.8.19-3.61.33-5.41.51a4.41,4.41,0,0,0-.91.3,16.76,16.76,0,0,1-2.61.82A4.06,4.06,0,0,1,33,98c-1.72,2.12-3.8,2.13-6.07,1.15a1.33,1.33,0,0,0-.69-.08A41.62,41.62,0,0,1,8.34,97.31a11.39,11.39,0,0,1-4.77-3c-3.08-3.28-2.72-9,.73-11.48a8.28,8.28,0,0,1,5.54-1.42c.75,0,1-.18,1.21-.88C11.43,79.18,11.93,77.84,12.38,76.48ZM27.27,63a2.33,2.33,0,0,0,.21.12A27.13,27.13,0,0,0,41.4,60c6.26-3.54,9.72-9.11,11.34-16a2.2,2.2,0,0,0-.59-2.18,22,22,0,0,0-9-6.07A31.44,31.44,0,0,0,29.28,34a49.91,49.91,0,0,0-15.87,3.79,20.27,20.27,0,0,0-8.54,6.39,1.42,1.42,0,0,0-.24,1.35,26.57,26.57,0,0,0,5.06,9.8,19.07,19.07,0,0,0,4.51,4,27.16,27.16,0,0,1,8.17-4.92c-.72-.54-1-1.37-2.05-1.26-.68.06-.95-1-.44-1.49a5.45,5.45,0,0,1,.9-.68c.94-.64,1.43-.45,1.77.64a2.49,2.49,0,0,0,3,1.6A11.33,11.33,0,0,1,28,52.81c1.53-.09,2.85.4,3.21,2a9.05,9.05,0,0,0,5.54-2.18c.24-.21.29-.62.46-.92s.37-.76.67-.88a1.18,1.18,0,0,1,1,.28,4.61,4.61,0,0,1,.88,1.16c.45.75,0,1.45-.89,1.49a1.2,1.2,0,0,0-.71.22,11.69,11.69,0,0,1-8.19,2.76,7.44,7.44,0,0,0-1.58.33A5.09,5.09,0,0,1,27.27,63Zm-8.1,20.57.58-.8a5.5,5.5,0,0,1,6.06-2,8.49,8.49,0,0,1,4.82,3.51c.78,1.14,1.35,2.42,2,3.65.09-.26.21-.58.31-.91a9,9,0,0,1,4.29-5.19,5.44,5.44,0,0,1,5.57-.31A33.69,33.69,0,0,1,46,83.72a1,1,0,0,0,.16-.34c.19-1,.39-2,.51-3a3.29,3.29,0,0,0-.15-1.43,45.89,45.89,0,0,0-8-14.57,1.31,1.31,0,0,0-1.62-.52A31.56,31.56,0,0,1,25.51,65c-.8-.06-1.79-.39-2.37,0s-.77,1.36-1.06,2.11c-1.38,3.53-3.41,6.51-6.83,8.35a.92.92,0,0,0-.39.39c-.77,1.93-1.51,3.86-2.26,5.77ZM3.81,42l.25.1a20,20,0,0,1,6.37-4.93,47.7,47.7,0,0,1,26.92-4.82,24.9,24.9,0,0,1,15.84,7.77,2.54,2.54,0,0,0,.4.24,15.28,15.28,0,0,0-.12-1.89c-.32-1.67-.66-3.34-1.07-5a2.34,2.34,0,0,0-.8-1.14c-3.67-3-8.05-4.49-12.48-5.84a19.22,19.22,0,0,0-4-.79A46,46,0,0,0,14.2,29a22.62,22.62,0,0,0-9.3,6.47,2.6,2.6,0,0,0-.66,1.17C4.05,38.41,3.94,40.19,3.81,42ZM50.38,28.77s-.07-.15-.14-.26c-.25-.38-.49-.78-.77-1.14-6.67-8.18-15.2-11.88-25.71-10.26a24.47,24.47,0,0,0-16.22,10,15.34,15.34,0,0,0-2.41,5.21,28,28,0,0,1,7.08-4.63A51.38,51.38,0,0,1,29,23.64a29.86,29.86,0,0,1,14.67,2.29C45.91,26.87,48.15,27.83,50.38,28.77ZM24.17,97.35c-.13-.17-.15-.22-.19-.26s-.29-.25-.44-.36a11.9,11.9,0,0,1-5-9.5,2.35,2.35,0,0,0-2-2.49,23.49,23.49,0,0,0-7.68-1.45c-2.31.09-4.24.9-5.12,3.27A6.19,6.19,0,0,0,6.1,94.07a12,12,0,0,0,2.2,1.2,30.23,30.23,0,0,0,10.11,2.06C20.29,97.44,22.17,97.35,24.17,97.35Zm4.26-42.47-.05-.21a4.85,4.85,0,0,0-1.16.16A64.06,64.06,0,0,0,19.52,58a40,40,0,0,0-9.31,7.65A8.22,8.22,0,0,0,7.92,71a3.19,3.19,0,0,0,3.27,3.54,5.55,5.55,0,0,0,2.28-.44A10.65,10.65,0,0,0,19,69c.81-1.68,1.59-3.37,2.29-5.1A1.46,1.46,0,0,1,23,62.77a3.5,3.5,0,0,0,3.6-4.9c-.07-.18-.13-.36-.21-.53A1,1,0,0,1,26.81,56C27.36,55.6,27.89,55.23,28.43,54.88ZM31.77,94c-.4-2.67-.82-5.59-2.44-8.15a7.15,7.15,0,0,0-3.45-3,3.83,3.83,0,0,0-5.44,3.82c.31,5.75,3.21,8.36,7.9,11a2.3,2.3,0,0,0,.94.2c1.41.08,2-.37,2.26-1.74C31.66,95.48,31.68,94.85,31.77,94Zm12.59-7.62a4.76,4.76,0,0,0-.61-1.81,4.15,4.15,0,0,0-5.17-1.2,7,7,0,0,0-3.81,4.5c-.42,1.68-.73,3.38-1,5.09a5.63,5.63,0,0,0,.62,3.61,2.45,2.45,0,0,0,3.32,1.35A7.19,7.19,0,0,0,41,95.64C43.2,93.08,44.07,90,44.36,86.35ZM57.11,82c.07,1.32.21,2.58.17,3.83a4.72,4.72,0,0,1-1.92,3.69c-2,1.6-4.17.91-4.92-1.56-.17-.58-.31-1.18-.47-1.81-1.25.81-2.38,1-3.54-.26-.3,3.93-1.21,7.61-3.83,10.9,1.86-.21,3.49-.38,5.11-.59a19.1,19.1,0,0,0,8.67-2.93A8.46,8.46,0,0,0,60.18,86C60.19,84.19,59,82,57.11,82Zm-9.06,2.79.35.06a2.49,2.49,0,0,0,1.08-2c.1-.59.29-1.07,1-1.07s.91.52,1,1.14c.2,1.33.38,2.68.69,4,.13.55.45,1.32.88,1.49.76.29,1.34-.4,1.77-1a2.21,2.21,0,0,0,.5-1.09,15.21,15.21,0,0,0-.2-3.51,35.51,35.51,0,0,0-1.42-4.14A24.22,24.22,0,0,0,48.94,70a22.78,22.78,0,0,0-7.31-5c.11.22.14.3.18.36A53.31,53.31,0,0,1,48,77.22,7.09,7.09,0,0,1,48.33,82,14.13,14.13,0,0,0,48.05,84.81ZM26.7,11a6.13,6.13,0,0,0-3.4-5.43,21.4,21.4,0,0,0-3.39-1.31c-2.41-.75-5-.88-7.24-2.23,0,0-.1,0-.2,0a2.87,2.87,0,0,0,.07.78c.7,1.9,1.3,3.85,2.17,5.66a7.43,7.43,0,0,0,4.59,4,1.75,1.75,0,0,0,.95.1c.86-.29,1.7-.67,2.73-1.08a6.13,6.13,0,0,0-1.06-1.09C20.63,9.6,19.31,8.86,18,8.13c-.59-.32-.88-.76-.58-1.38a1,1,0,0,1,1.46-.37c1.1.57,2.2,1.15,3.26,1.78,1.22.73,2.39,1.52,2.69,3.08Zm3.55,3.53c-.11-.84-.41-1.16-1.49-1.36a14.25,14.25,0,0,0-7.21,1c-.69.23-.67.87-.68,1.29ZM2.92,46.72l-.27-.14c-.25.43-.67.84-.72,1.3a2.78,2.78,0,0,0,2.4,2.61Zm50.82.92a2.59,2.59,0,0,0,2-2.5c0-.3-.42-.58-.69-.81-.07,0-.47.14-.52.28C54.26,45.6,54,46.61,53.74,47.64Z"/><path class="cls-1" d="M37.23,41.88A2,2,0,0,1,39,39.82a1.45,1.45,0,0,1,1.25,1.62,2,2,0,0,1-1.76,2.06A1.44,1.44,0,0,1,37.23,41.88Z"/><path class="cls-1" d="M22.67,42.06a1.53,1.53,0,0,1-1.07,1.62A1.48,1.48,0,0,1,20,42.76a1.9,1.9,0,0,1,.13-2.26,1.89,1.89,0,0,1,1.36-.36C22.15,40.26,22.67,41.22,22.67,42.06Z"/><path class="cls-1" d="M30.23,45a8,8,0,0,1,1.57,1,1,1,0,0,1,0,1,1.06,1.06,0,0,1-1,0c-.55-.35-.91-.39-1.4.11a1,1,0,0,1-1,.13,1.3,1.3,0,0,1-.25-1C28.31,45.49,29.19,45.09,30.23,45Z"/></g></g></svg>