<svg xmlns="http://www.w3.org/2000/svg" viewBox="0 0 83 100"><defs><style>.cls-1{fill:#fff;}</style></defs><title>ec</title><g id="Layer_2" data-name="Layer 2"><g id="Layer_1-2" data-name="Layer 1"><path class="cls-1" d="M19.16,17.86a8.54,8.54,0,0,0,6.26-2.61A8.83,8.83,0,0,0,28,8.87a9,9,0,0,0-2.61-6.26A8.75,8.75,0,0,0,19.16,0a8.53,8.53,0,0,0-6.25,2.61,8.8,8.8,0,0,0,0,12.51,8.18,8.18,0,0,0,6.25,2.74Z"/><path class="cls-1" d="M57.76,22.82A8.57,8.57,0,0,0,64,20.21a8.87,8.87,0,1,0-12.51,0A8.58,8.58,0,0,0,57.76,22.82Z"/><path class="cls-1" d="M82.79,56.58,73.4,29.73c-.13-.27-.13-.4-.26-.66a5.76,5.76,0,0,0-1.56-1.95,10,10,0,0,0-6.52-2H50.59a11,11,0,0,0-6.52,1.7,5.59,5.59,0,0,0-1.83,2.08.13.13,0,0,1-.13.13c-.13.13-.13.4-.26.53l-3,8.73V28.55A7.72,7.72,0,0,0,36,22C34,20.47,31.42,19.69,28,19.69H11A13.63,13.63,0,0,0,3,21.77c-2.09,1.44-3,3.52-3,6.52V57.5a3.45,3.45,0,0,0,3.39,3.39A3.46,3.46,0,0,0,6.78,57.5v-27h2V95.57A4.49,4.49,0,0,0,13.17,100a4.57,4.57,0,0,0,4.43-4.43V58.41h3.65v37a4.44,4.44,0,0,0,8.87,0V30.51h1.95V57.63a3.48,3.48,0,0,0,.79,2.21L33,60A3.33,3.33,0,0,0,34.55,61,3.54,3.54,0,0,0,39,58.93l8.74-25h.91l-8,54.5h6.26v6.91a4.48,4.48,0,0,0,4.43,4.43,4.57,4.57,0,0,0,4.43-4.43V88.4h3.65v6.91a4.44,4.44,0,0,0,8.87,0V88.4h6.25L66.62,33.9h.92l8.73,25a3.47,3.47,0,1,0,6.52-2.35Z"/></g></g></svg>