<svg xmlns="http://www.w3.org/2000/svg" viewBox="0 0 380.54 70"><defs><style>.cls-1,.cls-2{fill:#101010;}.cls-1{fill-rule:evenodd;}.cls-3{font-size:19.26px;font-family:Poppins-SemiBold, Poppins;font-weight:600;}.cls-4{font-size:15.13px;font-family:Poppins-Medium, Poppins;font-weight:500;}</style></defs><title>Asset 3</title><g id="Layer_2" data-name="Layer 2"><g id="Layer_1-2" data-name="Layer 1"><g id="Group_61" data-name="Group 61"><g id="Group_51" data-name="Group 51"><path id="Path_268" data-name="Path 268" class="cls-1" d="M20.92,51.54a.52.52,0,0,1,.52.52.52.52,0,0,1-.52.52.52.52,0,0,1-.52-.52.53.53,0,0,1,.52-.52Z"/><path id="Path_269" data-name="Path 269" class="cls-1" d="M23.92,52.29A17,17,0,0,0,22,52.14s0-.06,0-.09a.41.41,0,0,1,0-.11c.32,0,1-.09,1.9-.22a16.66,16.66,0,0,0,2-.37,1.49,1.49,0,0,1,0,.21.42.42,0,0,0-.27.44.42.42,0,0,0,.28.44.76.76,0,0,1,0,.15,16.3,16.3,0,0,0-2-.3Zm1.94.58h0l0-.21a16.5,16.5,0,0,1-2-.15c-.85-.1-1.58-.21-1.9-.28a1.62,1.62,0,0,1,0,.19c.31.08,1,.32,1.8.63.63.24,1.24.51,1.84.81a.58.58,0,0,1,0-.14.41.41,0,0,1-.16-.5c.06-.22.22-.37.37-.35Zm-.37,1.25h0a1.67,1.67,0,0,0,.08-.2,16.28,16.28,0,0,1-1.89-.66c-.8-.31-1.47-.61-1.76-.76a.81.81,0,0,1-.1.18c.28.16.89.59,1.57,1.1a18.88,18.88,0,0,1,1.54,1.27l.13-.17a.41.41,0,0,1,0-.51.42.42,0,0,1,.46-.25Zm-.69,1.11a.41.41,0,0,0-.5.12.4.4,0,0,0-.11.51L24,56a15.53,15.53,0,0,0-1.16-1.63c-.53-.67-1-1.24-1.23-1.47l.14-.14A17.15,17.15,0,0,0,23.25,54a18.46,18.46,0,0,0,1.64,1.14l-.09.13Zm-.95.89a.42.42,0,0,0-.52,0,.41.41,0,0,0-.24.46l-.18.09a17.71,17.71,0,0,0-.71-1.88c-.33-.78-.65-1.45-.81-1.73a1,1,0,0,0,.17-.1c.17.28.6.87,1.12,1.55A17,17,0,0,0,24,56l-.12.1Zm-1.15.62a.41.41,0,0,0-.5-.14c-.22.06-.37.23-.35.38l-.2,0a16.77,16.77,0,0,0-.2-2,19.08,19.08,0,0,0-.33-1.89.59.59,0,0,0,.19-.05c.09.31.35,1,.68,1.79a16.67,16.67,0,0,0,.86,1.81l-.15.06Zm-1.28.3.17,0a16.62,16.62,0,0,1-.36-2c-.12-.85-.19-1.58-.2-1.9h-.19a18.73,18.73,0,0,1-.17,1.91,18.79,18.79,0,0,1-.32,2l.2,0a.41.41,0,0,1,.43-.28.42.42,0,0,1,.44.27Zm-1.3,0a.42.42,0,0,0-.36-.37.4.4,0,0,0-.49.16l-.19-.07a17.69,17.69,0,0,0,.83-1.83,18.63,18.63,0,0,0,.65-1.8l.19,0c-.08.31-.19,1-.3,1.89a16.68,16.68,0,0,0-.16,2l-.17,0Zm-1.25-.37a.42.42,0,0,0-.25-.46.42.42,0,0,0-.52,0L18,56.08a17,17,0,0,0,1.26-1.55c.51-.68.93-1.29,1.1-1.57a1,1,0,0,0,.17.1,17.84,17.84,0,0,0-.78,1.75A17.54,17.54,0,0,0,19,56.69l-.15-.06Zm-1.12-.69h0l.14.1A17.11,17.11,0,0,1,19,54.4c.52-.69,1-1.26,1.2-1.49l-.14-.14c-.23.23-.79.71-1.46,1.24A16.52,16.52,0,0,1,17,55.17l.12.15a.42.42,0,0,1,.5.11.4.4,0,0,1,.12.51ZM17,55.12a17,17,0,0,1,1.52-1.29c.68-.53,1.27-1,1.55-1.13a1,1,0,0,1-.1-.17c-.28.17-1,.48-1.73.82a17.71,17.71,0,0,1-1.88.71,1.3,1.3,0,0,1,.08.17.41.41,0,0,1,.46.24.39.39,0,0,1,0,.51.76.76,0,0,0,.11.14Zm-.73-1.29c0,.06.05.12.07.17a16.67,16.67,0,0,1,1.81-.86c.78-.33,1.47-.6,1.78-.69a1.05,1.05,0,0,1,0-.19A17.8,17.8,0,0,1,18,52.6a16.36,16.36,0,0,1-2,.21L16,53c.16,0,.33.13.39.35a.41.41,0,0,1-.15.49Zm-.3-1.27a.4.4,0,0,0,.27-.44.41.41,0,0,0-.28-.44c0-.06,0-.12,0-.18a16.34,16.34,0,0,0,2,.32c.85.1,1.58.16,1.9.16v.1a.38.38,0,0,0,0,.1,18.06,18.06,0,0,0-1.91.2,16.1,16.1,0,0,0-2,.36l0-.18Zm0-1.31h0c0,.07,0,.13,0,.19a16.51,16.51,0,0,1,2,.16c.85.1,1.58.21,1.9.29a1.29,1.29,0,0,1,0-.19c-.31-.08-1-.33-1.8-.65a18.53,18.53,0,0,1-1.83-.81l-.06.17a.41.41,0,0,1,.16.49c-.06.22-.22.37-.38.35ZM16.36,50l-.07.18a15.56,15.56,0,0,1,1.88.67,17.6,17.6,0,0,1,1.76.77.56.56,0,0,1,.09-.17c-.28-.16-.89-.58-1.57-1.09A17,17,0,0,1,16.9,49.1a1.34,1.34,0,0,0-.11.14.42.42,0,0,1,0,.52.41.41,0,0,1-.46.24Zm.69-1.11a.39.39,0,0,0,.5-.12.4.4,0,0,0,.11-.5l.14-.11A17,17,0,0,0,19,49.77a16.9,16.9,0,0,0,1.24,1.46l-.14.15a16.57,16.57,0,0,0-1.49-1.2,15.39,15.39,0,0,0-1.64-1.13.91.91,0,0,1,.11-.16ZM18,48a.42.42,0,0,0,.52,0,.41.41,0,0,0,.24-.46l.15-.07a16.37,16.37,0,0,0,.72,1.87c.34.78.65,1.45.82,1.73a1,1,0,0,0-.17.1c-.17-.28-.6-.87-1.13-1.54a17.33,17.33,0,0,0-1.3-1.52L18,48Zm1.15-.62a.42.42,0,0,0,.5.15c.22-.06.37-.23.35-.39l.16,0a19.22,19.22,0,0,0,.22,2A18,18,0,0,0,20.72,51l-.19,0c-.09-.31-.36-1-.7-1.78A17.6,17.6,0,0,0,19,47.45l.18-.07Zm1.27-.3h0l-.19,0a18.31,18.31,0,0,1,.37,2c.12.85.2,1.58.21,1.91H21c0-.32.06-1,.16-1.91a16.47,16.47,0,0,1,.31-2l-.17,0a.41.41,0,0,1-.44.28.4.4,0,0,1-.44-.27Zm1.31,0c0,.16.13.32.36.38a.41.41,0,0,0,.49-.16l.16.06a16.72,16.72,0,0,0-.82,1.83c-.31.79-.56,1.49-.64,1.8L21.09,51a18.76,18.76,0,0,0,.29-1.89,16.67,16.67,0,0,0,.15-2l.2,0ZM23,47.5a.4.4,0,0,0,.25.45.39.39,0,0,0,.51,0l.14.1a17,17,0,0,0-1.26,1.55c-.51.69-.92,1.3-1.08,1.58l-.18-.1a17.14,17.14,0,0,0,.77-1.75,16.28,16.28,0,0,0,.66-1.89l.19.08Zm-1.25,4.55a.81.81,0,0,0-.82-.8h0a.81.81,0,0,0-.79.82h0a.81.81,0,1,0,1.61,0Zm2.36-3.86h0l-.16-.13a18.5,18.5,0,0,1-1.13,1.65c-.51.69-1,1.26-1.19,1.5l.14.13c.23-.23.78-.7,1.46-1.24a19,19,0,0,1,1.61-1.18l-.1-.12a.49.49,0,0,1-.63-.62Zm.89,1L24.86,49a18.93,18.93,0,0,1-1.52,1.3,17.22,17.22,0,0,1-1.54,1.13l.1.17c.28-.16,1-.48,1.73-.82A15.68,15.68,0,0,1,25.5,50l-.07-.15a.41.41,0,0,1-.46-.24.41.41,0,0,1,0-.51Zm.62,1.15h0c0-.07-.05-.13-.07-.2a15.81,15.81,0,0,1-1.81.87c-.78.34-1.47.61-1.78.7a1.33,1.33,0,0,1,0,.19c.32-.08,1-.22,1.89-.35a16.57,16.57,0,0,1,2-.21l0-.16c-.15,0-.32-.13-.38-.35a.39.39,0,0,1,.14-.49ZM20.85,46.7a5.36,5.36,0,0,0-5.29,5.43h0A5.37,5.37,0,0,0,26.29,52h0a5.36,5.36,0,0,0-5.44-5.29Z"/><path id="Path_270" data-name="Path 270" class="cls-1" d="M24.59,5.33c-.19-.11-.46-.64-1-.64s-.92.74-1,.87.08.28.22.22c.35-.16.31-.66.87-.69s.59.43.9.46.27-.1.08-.22Z"/><path id="Path_271" data-name="Path 271" class="cls-1" d="M17.13,5.63c.21,0,.53-.52.88-.65a.73.73,0,0,1,.8.33c.1.13.23.29.36.31s.19-.18.15-.19-.16-.52-.49-.74A1,1,0,0,0,18,4.6a3.47,3.47,0,0,0-.9.61c-.26.2-.39.32-.39.32a.68.68,0,0,0,.46.1Z"/><path id="Path_272" data-name="Path 272" class="cls-1" d="M20.69,11.2c-.21,0,0,.39-.28.43s-.17-.39-.28-.35,0,.44.07.51.35.32.49.05S20.81,11.2,20.69,11.2Z"/><path id="Path_273" data-name="Path 273" class="cls-1" d="M18.94,12.2a.72.72,0,0,0-.05.77c.17.22.36.27.4.21s-.17-.3-.29-.38-.06-.6-.06-.6Z"/><path id="Path_274" data-name="Path 274" class="cls-1" d="M22.72,13.25a.88.88,0,0,0,.5-.65,1.06,1.06,0,0,0-.09-.71c-.14,0,0,.48-.22.76S22.36,13.32,22.72,13.25Z"/><rect id="Rectangle_248" data-name="Rectangle 248" class="cls-2" x="31.57" y="55.37" width="0.3" height="0.31"/><rect id="Rectangle_249" data-name="Rectangle 249" class="cls-2" x="31.42" y="56.03" width="0.3" height="0.28"/><rect id="Rectangle_250" data-name="Rectangle 250" class="cls-2" x="31.36" y="56.66" width="0.3" height="0.23"/><rect id="Rectangle_251" data-name="Rectangle 251" class="cls-2" x="31.12" y="48.48" width="0.3" height="0.28"/><rect id="Rectangle_252" data-name="Rectangle 252" class="cls-2" x="31.57" y="48.48" width="0.3" height="0.28"/><rect id="Rectangle_253" data-name="Rectangle 253" class="cls-2" x="31.65" y="49.22" width="0.3" height="0.28"/><rect id="Rectangle_254" data-name="Rectangle 254" class="cls-2" x="30.67" y="47.83" width="0.3" height="0.28"/><rect id="Rectangle_255" data-name="Rectangle 255" class="cls-2" x="32.18" y="49.26" width="0.3" height="0.28"/><rect id="Rectangle_256" data-name="Rectangle 256" class="cls-2" x="32.94" y="51.06" width="0.3" height="0.28"/><rect id="Rectangle_257" data-name="Rectangle 257" class="cls-2" x="33.49" y="49.91" width="0.3" height="0.28"/><rect id="Rectangle_258" data-name="Rectangle 258" class="cls-2" x="32.94" y="50.52" width="0.3" height="0.28"/><rect id="Rectangle_259" data-name="Rectangle 259" class="cls-2" x="33.49" y="49.36" width="0.3" height="0.28"/><rect id="Rectangle_260" data-name="Rectangle 260" class="cls-2" x="32.86" y="49.31" width="0.3" height="0.28"/><rect id="Rectangle_261" data-name="Rectangle 261" class="cls-2" x="32.18" y="48.57" width="0.3" height="0.28"/><rect id="Rectangle_262" data-name="Rectangle 262" class="cls-2" x="32.94" y="49.99" width="0.3" height="0.28"/><rect id="Rectangle_263" data-name="Rectangle 263" class="cls-2" x="25.67" y="56.56" width="0.3" height="0.2"/><rect id="Rectangle_264" data-name="Rectangle 264" class="cls-2" x="25.73" y="57.18" width="0.3" height="0.2"/><rect id="Rectangle_265" data-name="Rectangle 265" class="cls-2" x="26.29" y="56.57" width="0.3" height="0.2"/><rect id="Rectangle_266" data-name="Rectangle 266" class="cls-2" x="25.12" y="57.22" width="0.3" height="0.2"/><rect id="Rectangle_267" data-name="Rectangle 267" class="cls-2" x="26.26" y="57.18" width="0.3" height="0.2"/><rect id="Rectangle_268" data-name="Rectangle 268" class="cls-2" x="26.87" y="57.18" width="0.3" height="0.2"/><rect id="Rectangle_269" data-name="Rectangle 269" class="cls-2" x="27.3" y="56.47" width="0.3" height="0.2"/><rect id="Rectangle_270" data-name="Rectangle 270" class="cls-2" x="26.87" y="55.08" width="0.3" height="0.2"/><rect id="Rectangle_271" data-name="Rectangle 271" class="cls-2" x="26.29" y="55.72" width="0.3" height="0.2"/><rect id="Rectangle_272" data-name="Rectangle 272" class="cls-2" x="26.87" y="55.72" width="0.3" height="0.2"/><rect id="Rectangle_273" data-name="Rectangle 273" class="cls-2" x="26.8" y="56.47" width="0.3" height="0.2"/><rect id="Rectangle_274" data-name="Rectangle 274" class="cls-2" x="27.57" y="53.67" width="0.3" height="0.2"/><rect id="Rectangle_275" data-name="Rectangle 275" class="cls-2" x="28.02" y="55.08" width="0.3" height="0.2"/><rect id="Rectangle_276" data-name="Rectangle 276" class="cls-2" x="27.38" y="55.73" width="0.3" height="0.2"/><rect id="Rectangle_277" data-name="Rectangle 277" class="cls-2" x="27.45" y="55.08" width="0.3" height="0.2"/><rect id="Rectangle_278" data-name="Rectangle 278" class="cls-2" x="27.48" y="54.45" width="0.3" height="0.2"/><rect id="Rectangle_279" data-name="Rectangle 279" class="cls-2" x="27.01" y="48.34" width="0.3" height="0.28"/><rect id="Rectangle_280" data-name="Rectangle 280" class="cls-2" x="27.16" y="49.68" width="0.3" height="0.28"/><rect id="Rectangle_281" data-name="Rectangle 281" class="cls-2" x="27.01" y="47.69" width="0.3" height="0.28"/><rect id="Rectangle_282" data-name="Rectangle 282" class="cls-2" x="26.47" y="47.69" width="0.3" height="0.28"/><rect id="Rectangle_283" data-name="Rectangle 283" class="cls-2" x="27.07" y="48.94" width="0.3" height="0.28"/><rect id="Rectangle_284" data-name="Rectangle 284" class="cls-2" x="12.32" y="51.14" width="0.3" height="0.2"/><rect id="Rectangle_285" data-name="Rectangle 285" class="cls-2" x="12.32" y="50.68" width="0.3" height="0.2"/><rect id="Rectangle_286" data-name="Rectangle 286" class="cls-2" x="12.85" y="49.07" width="0.3" height="0.2"/><rect id="Rectangle_287" data-name="Rectangle 287" class="cls-2" x="12.78" y="48.31" width="0.3" height="0.2"/><rect id="Rectangle_288" data-name="Rectangle 288" class="cls-2" x="11.83" y="49.07" width="0.3" height="0.2"/><rect id="Rectangle_289" data-name="Rectangle 289" class="cls-2" x="12.78" y="47.68" width="0.3" height="0.2"/><rect id="Rectangle_290" data-name="Rectangle 290" class="cls-2" x="13.71" y="47.68" width="0.3" height="0.2"/><rect id="Rectangle_291" data-name="Rectangle 291" class="cls-2" x="11.83" y="50" width="0.3" height="0.2"/><rect id="Rectangle_292" data-name="Rectangle 292" class="cls-2" x="12.91" y="51.18" width="0.3" height="0.2"/><rect id="Rectangle_293" data-name="Rectangle 293" class="cls-2" x="12.32" y="47.68" width="0.3" height="0.2"/><rect id="Rectangle_294" data-name="Rectangle 294" class="cls-2" x="14.35" y="47.64" width="0.3" height="0.2"/><rect id="Rectangle_295" data-name="Rectangle 295" class="cls-2" x="13.21" y="47.68" width="0.3" height="0.2"/><rect id="Rectangle_296" data-name="Rectangle 296" class="cls-2" x="13.21" y="48.31" width="0.3" height="0.2"/><rect id="Rectangle_297" data-name="Rectangle 297" class="cls-2" x="11.83" y="50.66" width="0.3" height="0.2"/><rect id="Rectangle_298" data-name="Rectangle 298" class="cls-2" x="10.16" y="49.13" width="0.3" height="0.2"/><rect id="Rectangle_299" data-name="Rectangle 299" class="cls-2" x="10.22" y="50.68" width="0.3" height="0.2"/><rect id="Rectangle_300" data-name="Rectangle 300" class="cls-2" x="12.32" y="48.31" width="0.3" height="0.2"/><rect id="Rectangle_301" data-name="Rectangle 301" class="cls-2" x="10.67" y="48.37" width="0.3" height="0.2"/><rect id="Rectangle_302" data-name="Rectangle 302" class="cls-2" x="10.67" y="50" width="0.3" height="0.2"/><rect id="Rectangle_303" data-name="Rectangle 303" class="cls-2" x="10.67" y="49.13" width="0.3" height="0.2"/><rect id="Rectangle_304" data-name="Rectangle 304" class="cls-2" x="10.11" y="47.84" width="0.3" height="0.2"/><rect id="Rectangle_305" data-name="Rectangle 305" class="cls-2" x="9.56" y="49.13" width="0.3" height="0.2"/><rect id="Rectangle_306" data-name="Rectangle 306" class="cls-2" x="9.56" y="48.37" width="0.3" height="0.2"/><rect id="Rectangle_307" data-name="Rectangle 307" class="cls-2" x="9.56" y="47.84" width="0.3" height="0.2"/><rect id="Rectangle_308" data-name="Rectangle 308" class="cls-2" x="10.09" y="50" width="0.3" height="0.2"/><rect id="Rectangle_309" data-name="Rectangle 309" class="cls-2" x="10.16" y="48.37" width="0.3" height="0.2"/><rect id="Rectangle_310" data-name="Rectangle 310" class="cls-2" x="11.83" y="47.71" width="0.3" height="0.2"/><rect id="Rectangle_311" data-name="Rectangle 311" class="cls-2" x="11.8" y="48.37" width="0.3" height="0.2"/><rect id="Rectangle_312" data-name="Rectangle 312" class="cls-2" x="11.86" y="51.18" width="0.3" height="0.2"/><rect id="Rectangle_313" data-name="Rectangle 313" class="cls-2" x="12.32" y="49.09" width="0.3" height="0.2"/><rect id="Rectangle_314" data-name="Rectangle 314" class="cls-2" x="12.3" y="50" width="0.3" height="0.2"/><rect id="Rectangle_315" data-name="Rectangle 315" class="cls-2" x="11.18" y="50.68" width="0.3" height="0.2"/><rect id="Rectangle_316" data-name="Rectangle 316" class="cls-2" x="10.75" y="50.68" width="0.3" height="0.2"/><rect id="Rectangle_317" data-name="Rectangle 317" class="cls-2" x="11.14" y="47.74" width="0.3" height="0.2"/><rect id="Rectangle_318" data-name="Rectangle 318" class="cls-2" x="11.18" y="50" width="0.3" height="0.2"/><rect id="Rectangle_319" data-name="Rectangle 319" class="cls-2" x="10.67" y="47.84" width="0.3" height="0.2"/><rect id="Rectangle_320" data-name="Rectangle 320" class="cls-2" x="11.18" y="49.09" width="0.3" height="0.2"/><rect id="Rectangle_321" data-name="Rectangle 321" class="cls-2" x="11.18" y="48.37" width="0.3" height="0.2"/><rect id="Rectangle_322" data-name="Rectangle 322" class="cls-2" x="8.59" y="55.06" width="0.31" height="0.24"/><rect id="Rectangle_323" data-name="Rectangle 323" class="cls-2" x="9.12" y="55.69" width="0.31" height="0.24"/><rect id="Rectangle_324" data-name="Rectangle 324" class="cls-2" x="7.51" y="56.27" width="0.31" height="0.24"/><rect id="Rectangle_325" data-name="Rectangle 325" class="cls-2" x="7.51" y="55.64" width="0.31" height="0.25"/><rect id="Rectangle_326" data-name="Rectangle 326" class="cls-2" x="6.94" y="55.61" width="0.31" height="0.24"/><rect id="Rectangle_327" data-name="Rectangle 327" class="cls-2" x="7.51" y="56.94" width="0.31" height="0.24"/><rect id="Rectangle_328" data-name="Rectangle 328" class="cls-2" x="11.71" y="57.05" width="0.31" height="0.24"/><rect id="Rectangle_329" data-name="Rectangle 329" class="cls-2" x="10.69" y="57.05" width="0.31" height="0.24"/><rect id="Rectangle_330" data-name="Rectangle 330" class="cls-2" x="11.15" y="57.03" width="0.31" height="0.24"/><rect id="Rectangle_331" data-name="Rectangle 331" class="cls-2" x="11.15" y="55.73" width="0.31" height="0.24"/><rect id="Rectangle_332" data-name="Rectangle 332" class="cls-2" x="10.69" y="56.43" width="0.31" height="0.25"/><rect id="Rectangle_333" data-name="Rectangle 333" class="cls-2" x="10.63" y="55.76" width="0.31" height="0.24"/><rect id="Rectangle_334" data-name="Rectangle 334" class="cls-2" x="10.16" y="56.42" width="0.31" height="0.25"/><rect id="Rectangle_335" data-name="Rectangle 335" class="cls-2" x="11.15" y="56.39" width="0.31" height="0.24"/><rect id="Rectangle_336" data-name="Rectangle 336" class="cls-2" x="8.03" y="55.06" width="0.31" height="0.24"/><rect id="Rectangle_337" data-name="Rectangle 337" class="cls-2" x="12.31" y="57.03" width="0.31" height="0.24"/><rect id="Rectangle_338" data-name="Rectangle 338" class="cls-2" x="10.16" y="57.05" width="0.31" height="0.24"/><rect id="Rectangle_339" data-name="Rectangle 339" class="cls-2" x="11.71" y="56.43" width="0.31" height="0.25"/><rect id="Rectangle_340" data-name="Rectangle 340" class="cls-2" x="12.31" y="56.43" width="0.31" height="0.25"/><rect id="Rectangle_341" data-name="Rectangle 341" class="cls-2" x="8.65" y="55.64" width="0.31" height="0.25"/><rect id="Rectangle_342" data-name="Rectangle 342" class="cls-2" x="8.65" y="57.03" width="0.31" height="0.24"/><rect id="Rectangle_343" data-name="Rectangle 343" class="cls-2" x="8.18" y="57.03" width="0.31" height="0.24"/><rect id="Rectangle_344" data-name="Rectangle 344" class="cls-2" x="8.59" y="56.39" width="0.31" height="0.24"/><rect id="Rectangle_345" data-name="Rectangle 345" class="cls-2" x="8.03" y="55.64" width="0.31" height="0.25"/><rect id="Rectangle_346" data-name="Rectangle 346" class="cls-2" x="8.1" y="56.3" width="0.31" height="0.24"/><rect id="Rectangle_347" data-name="Rectangle 347" class="cls-2" x="9.17" y="57.03" width="0.31" height="0.24"/><rect id="Rectangle_348" data-name="Rectangle 348" class="cls-2" x="9.67" y="56.39" width="0.31" height="0.24"/><rect id="Rectangle_349" data-name="Rectangle 349" class="cls-2" x="9.12" y="56.42" width="0.31" height="0.25"/><rect id="Rectangle_350" data-name="Rectangle 350" class="cls-2" x="9.67" y="55.69" width="0.31" height="0.24"/><rect id="Rectangle_351" data-name="Rectangle 351" class="cls-2" x="10.08" y="55.76" width="0.31" height="0.24"/><rect id="Rectangle_352" data-name="Rectangle 352" class="cls-2" x="9.67" y="57.03" width="0.31" height="0.25"/><rect id="Rectangle_353" data-name="Rectangle 353" class="cls-2" x="15.16" y="55.69" width="0.31" height="0.24"/><rect id="Rectangle_354" data-name="Rectangle 354" class="cls-2" x="13.81" y="53.53" width="0.31" height="0.24"/><rect id="Rectangle_355" data-name="Rectangle 355" class="cls-2" x="13.22" y="53.03" width="0.31" height="0.25"/><rect id="Rectangle_356" data-name="Rectangle 356" class="cls-2" x="13.3" y="53.65" width="0.31" height="0.24"/><rect id="Rectangle_357" data-name="Rectangle 357" class="cls-2" x="13.9" y="54.31" width="0.31" height="0.24"/><rect id="Rectangle_358" data-name="Rectangle 358" class="cls-2" x="14.35" y="53.53" width="0.31" height="0.24"/><rect id="Rectangle_359" data-name="Rectangle 359" class="cls-2" x="13.81" y="53.03" width="0.31" height="0.25"/><rect id="Rectangle_360" data-name="Rectangle 360" class="cls-2" x="14.51" y="54.19" width="0.31" height="0.24"/><path id="Path_275" data-name="Path 275" class="cls-1" d="M8,50.69c0-.12.13-.15.28-.32s.07-.46,0-.42c-.14.21-.25.2-.35.41S8,50.86,8,50.69Z"/><path id="Path_276" data-name="Path 276" class="cls-1" d="M9,52.17c-.05-.14,0-.75-.09-.74s-.18.56-.16.72S9.06,52.32,9,52.17Z"/><path id="Path_277" data-name="Path 277" class="cls-1" d="M21.88,2.69h0Z"/><path id="Path_278" data-name="Path 278" class="cls-1" d="M20.72,2.61Z"/><path id="Path_279" data-name="Path 279" class="cls-1" d="M7.41,49.52c0,.16.11.27.18.22s-.09-.15.09-.39,0-.51-.06-.39S7.37,49.24,7.41,49.52Z"/><path id="Path_280" data-name="Path 280" class="cls-1" d="M7.19,48.92c.07,0,.17,0,.11-.18s.09-.16.17-.21-.1-.11-.25,0a.25.25,0,0,0-.08.34Z"/><path id="Path_281" data-name="Path 281" class="cls-1" d="M16.91,8.27h0Z"/><path id="Path_282" data-name="Path 282" class="cls-1" d="M7.81,50.11c0-.23.2-.26.24-.39s0-.36-.06-.22-.28.23-.31.39S7.8,50.24,7.81,50.11Z"/><path id="Path_283" data-name="Path 283" class="cls-1" d="M7,48.21c-.07-.08-.28.16-.2.35s.2.21.14-.1C6.93,48.35,7.06,48.26,7,48.21Z"/><path id="Path_284" data-name="Path 284" class="cls-1" d="M8.25,50.76a.43.43,0,0,0-.17.48c.09.19.14.23.19,0a.46.46,0,0,1,.19-.3.37.37,0,0,0,.06-.47S8.43,50.61,8.25,50.76Z"/><path id="Path_285" data-name="Path 285" class="cls-1" d="M8.38,51.39c-.11.26,0,.49.14.49s.11-.28.12-.39.09-.42,0-.42S8.44,51.24,8.38,51.39Z"/><path id="Path_286" data-name="Path 286" class="cls-1" d="M6.73,48c-.14,0-.24.31-.17.4s.11,0,.11-.13S6.86,48,6.73,48Z"/><path id="Path_287" data-name="Path 287" class="cls-1" d="M9.52,52.26c.13.06.15,0,.1-.13s-.29-.21-.3-.15S9.44,52.22,9.52,52.26Z"/><path id="Path_288" data-name="Path 288" class="cls-1" d="M17.07,8.1a.74.74,0,0,0-.12.13l0,0A1.07,1.07,0,0,0,17.07,8.1Z"/><path id="Path_289" data-name="Path 289" class="cls-1" d="M31.18,50.9a.24.24,0,0,0-.22.22c0,.12.22.08.28,0a.15.15,0,0,0,0-.21Z"/><path id="Path_290" data-name="Path 290" class="cls-1" d="M29.34,50.07a.54.54,0,0,0,.36-.46c0-.16-.19,0-.29-.17s.08-.25.22-.37-.31-.17-.69,0-.53.74-.38.67.24-.19.29-.15-.07.07-.07.14A.22.22,0,0,0,29,50c.07,0,.05-.1.07-.18s.08-.16.18-.12.07.23-.13.31,0,.23.26.09Z"/><path id="Path_291" data-name="Path 291" class="cls-1" d="M9.7,12.94h0Z"/><path id="Path_292" data-name="Path 292" class="cls-1" d="M37.7,10.94a.62.62,0,0,1-.49-.16,5.63,5.63,0,0,0,.86-.9c.22-.33.57,0,.52.25a1.22,1.22,0,0,1-.89.81Zm2.87,1.59a1.24,1.24,0,0,0-.29-.88,3.2,3.2,0,0,0-.61-.55c-.29-.18-.21-.65-.39-.72a2.73,2.73,0,0,0-.08-1,3.36,3.36,0,0,0-.3-.6c-.31-.52-.66-.08-2.26-1a1,1,0,0,0-.82-.14c-.35.15-.49.82-.83.83-.5,0-.41.46-.38.64s.15.27.17.48.42.27.56.18a.7.7,0,0,1,.58-.1c.37.11.9.58.9.73s-.23.11-.45,0a2.48,2.48,0,0,0-1.2-.21c-.53,0-.65.24-.67.52s.17.31.21.73-.16.52-.11.68.77,0,1,0,.67-.26.74-.09c0-.05-.19,0-.56.38-.1.11-.37.34-.46.45-.26.33-.79-.1-.95.1s.11.65,0,.83a4.19,4.19,0,0,0,.07,1.69c.25.27.8.42,1,.66s.17.6.27.74a.63.63,0,0,0,.76.24c.32-.13.56-.28.44-.44a1.49,1.49,0,0,1-.37-.79c0-.28.15-.47-.18-.49s-1,.11-1.32-.25-.3-.87-.08-1,.53.16.6-.56a3.35,3.35,0,0,1,.44-1.11c.09-.16.28-.39.24-.45.07.18.64-.18,1,.25a4.28,4.28,0,0,0,.6.67h0c0,.07.23.63.25.69,0,.22.29.73-.07.37-.18-.18-.73-1.06-.75-1.08s-.19,0-.15.15c.26.41.55.81.85,1.2.25.15.05.41.45.41.21,0,.16-.27.12-.54a2.58,2.58,0,0,0-.26-.72c0-.06-.18-.37-.21-.41.2.08.35.35.46.5s.42.67.62.52-.35-.74-.54-.91-.33-.32-.21-.39.38.08.54.2a5.53,5.53,0,0,0,.73.7c.18.08.27-.2,0-.49a2,2,0,0,0-.95-.73,2.28,2.28,0,0,0-.73-.08c-.37,0-.31-.13-.27-.3a.62.62,0,0,0-.32-.87c-.86-.44-.76-.39-.46-.77a13.6,13.6,0,0,1,1.09-1.44.36.36,0,0,1,.5.08,1.21,1.21,0,0,1,.22.32c.06.21,0,.78.08.89l0,.05a.81.81,0,0,0-.35.48c-.07.35.24.43.13.55s-.55-.4-.72-.34,0,.27.14.32a.37.37,0,0,1,.22.28c0,.17,0,.37.09.42a2.65,2.65,0,0,1,.84.12c.56.19.31.67.7.85.22.09.45-.37.48-.56Zm-3.34,1.19c.16.13.36.46.24.5s-.28-.25-.35-.32-.29-.09-.33-.12a.12.12,0,0,1,0-.17s0,0,0,0a.73.73,0,0,1,.38.14Zm1.19,1.59a2.73,2.73,0,0,1-.79.61c-.14,0,.24.3-.06.31a.69.69,0,0,1-.51-.41c-.15-.24-.3-.62-.55-.61a1.13,1.13,0,0,1-.8-.16.58.58,0,0,1-.32-.35c0-.11,0-.21.29-.43a1.85,1.85,0,0,0,.3-.39,5.26,5.26,0,0,1,.44-.85,3.09,3.09,0,0,1,.37-.43c.09-.07.2,0,.06.13a10.15,10.15,0,0,0-.61,1.12,3.58,3.58,0,0,0-.4.77c0,.22.25.18.37.14s.17-.48.31-.46.21.25.18.4c-.09.42.27-.12.39,0s-.26.78.25.33c.16-.15.23-.62.47-.47s.23.2.17.28-.52.37-.61.48a.25.25,0,0,0,.05.36c.21.07.41-.4.72-.54.16-.08.36.11.28.21Zm-4,3.2a.75.75,0,0,0,.38.7c.23.14-.12.15-.21.1s-.55-.52-.79-.69.41-.32.41-.44,0-.32-.21-.2a.84.84,0,0,1-.89-.2,1.32,1.32,0,0,1-.17-1.31,1,1,0,0,1,.5-.61c.1,0,.37-.09.38.16,0,.45-.27.59-.42.89s0,.89.35.9.24-.25.45-.26.26.55.22.95ZM35,21.45a9,9,0,0,1-.75,1c-.12.18.11.52.26.43s.52-.87.85-1,.34.2.29.52c-.08.51-.62.49-.8.9a.84.84,0,0,0,0,.52c0,.08-.22,0-.3-.08s0-.44-.1-.48c-.74-.38-.87-.84-.84-1a4.37,4.37,0,0,1,.77-1.18c.24-.21.37-.59.57-.59S35.06,21.19,35,21.45Zm-1.08,4.66c-.08.22.26.43.42.59s-.09.17-.36.2a.69.69,0,0,1-.41-.57,1.52,1.52,0,0,1,.57-1.28c.33-.25.28-.43.22-.58s.43,0,.44.46c0,.75-.81.95-.88,1.18Zm-.76-1c0-.31.59-.64.54-1s-.1-.57-.25-.65-.18.24-.34.46a1.89,1.89,0,0,0-.42.85A1.86,1.86,0,0,0,33,26.12a8.3,8.3,0,0,0,.09-1ZM33,27.46a1.6,1.6,0,0,1-.52.75c-.15.14-.52.39,0,.8.18.13,0,.45-.45.11a1.05,1.05,0,0,1-.11-1c.11-.28.29-.42.66-.66s.17-.56.4-.56.08.26,0,.55Zm-1.11,2.46c.15-.19-.1-.29-.55-.26s-.51.21-.81.24a.42.42,0,0,1-.5-.33.57.57,0,0,1,0-.13c.07-.34.5-.45.59-.66a.2.2,0,0,0-.29-.27,1.21,1.21,0,0,0-.53,1,.65.65,0,0,0,.42.58c.29.14.79-.06.94,0s-.28.3-.24.62.55.63.73.53.08-.23-.06-.41-.22-.16-.15-.33a2.83,2.83,0,0,1,.46-.63Zm-.54,5.79c0,.5-.58,3-.55,3.48s.65,1.71.61,2.13S32,42.53,32,42.8s-.26,0-.44-.29a3.1,3.1,0,0,0-.48-.7c-.15-.07.1.73.21.93s.64.74.56.76a2.72,2.72,0,0,1-1.06-1,11.88,11.88,0,0,1-.46-1.65,7.75,7.75,0,0,1-.08-1.73c.1-1.86.45-3.58.42-4a15.84,15.84,0,0,0,0-2.48c-.1-.14-.22-.74,0-.89s.4.09.49.24c.44.69.22,3.27.23,3.72Zm-1.3-5c.07,0,.27-.14.31,0s0,.33-.15.35S29.85,30.91,30.09,30.73Zm2,13.41h0c0-.25-.2-.62-.37-.55s-.44-.08-.62-.16c-.37-.16-.52-.71-.63-1s-.15-1.44-.33-1.88A14.62,14.62,0,0,1,30.17,37c.14-.21-.19-1.19,0-1.35s.11-.52.06-1.26a10.48,10.48,0,0,0-.31-2.69,1.29,1.29,0,0,0-.67-.8,1.27,1.27,0,0,1-.51-.59,2.89,2.89,0,0,0-.89-.69c-.22-.13-.12-.65-.42-.49s0,.49,0,.7-.06.5.17.66.19.36,0,.43.08.21,0,.36c-.36.68-.06,2.52-.21,2.71a1.94,1.94,0,0,0-.17,1.38,1,1,0,0,1-.13.83,2.27,2.27,0,0,0,.29,1.87,3.12,3.12,0,0,1,.23.85,1.41,1.41,0,0,0,.33.67c.46.29.25.91.55,1s0,1,.24,1.13.05,1.1.19,1.24c.74.78.59,1.33.73,1.4s.71,1.44,1.43,1.53c.42,0,.3-.48.41-.79s-.24-1,0-.89A1.72,1.72,0,0,1,32,45.47c-.15.08-.17.64.05.59s.07-.31.25-.46.58,0,.57.21c0,.67.23.44.33.14s.07-.42-.1-.5a3.68,3.68,0,0,1-.79-.51c-.17-.16-.15-.47-.22-.81Zm.46-.56c.22-.09.53.06.69.11.35.12.51.23.53.41a4.81,4.81,0,0,0,0,1,3.06,3.06,0,0,1,.17.59,2.08,2.08,0,0,1,0,.5c0,.09-.17.08-.28.05s.11-.48,0-.94a1,1,0,0,0-.39-.39,2,2,0,0,1-.67-.93c0-.15-.19-.33,0-.4ZM34,43.3h0c-.13,0-.54,0-.51.1.39.2.42.74.45.76.2.09.25.43.24.56s.54.64.66.69a1.68,1.68,0,0,1,0,.67c0,.06-.12.22-.08.31s.39.1.41.06c.1-.26-.11-.31-.14-.5s-.06-.48.07-.56a.34.34,0,0,1,.34,0,.5.5,0,0,1,.16.47c-.07.29-.05.39,0,.39s.17-.34.18-.47a.9.9,0,0,0-.16-.53c-1-.49-1.22-.65-1.26-.78s.05-.84-.06-1A.85.85,0,0,0,34,43.3Zm1.85,4.19a.19.19,0,0,1-.25.11.18.18,0,0,1-.12-.19c0-.27-.19-.53-.1-.53a.46.46,0,0,1,.34.12A.49.49,0,0,1,35.86,47.49ZM36,54.74a20.23,20.23,0,0,1-.25,2.33c0,.15-.23-4.6-.23-4.93s0-3.78.09-3.73c.32.18.32,1.86.32,2.58,0,.41.1,2.88.07,3.75Zm-.71-9.14c.09,0,.17.11.17.32s0,.41,0,.43-.1-.19-.13-.32-.14-.41,0-.43Zm-.15,11.47c-.12.34-.31-4.94-.31-5.37s-.17-3.28.09-3.46c.09-.07.35.81.4,2.37,0,1.3.11,5.69-.18,6.46Zm-.45,1c-.1.07-.19.11-.23.07s-.05-.17-.1-.27-.19-.25-.1-.26a.36.36,0,0,1,.36.22c.07.11.18.16.07.24Zm-.49.19s0-.09,0-.18-.33-.36-.42-.35a.44.44,0,0,0-.11.09s.26.24.27.29a.38.38,0,0,0,.08.17.24.24,0,0,0,.22,0Zm-.72.2s-.13.1-.15-.08-.44-.47-.25-.5c0,0,.21,0,.28,0a2.3,2.3,0,0,1,.32.38S33.57,58.35,33.51,58.43Zm-.07-1.51c0,.15.05.44,0,.49s-.1,0-.15-.16a1.43,1.43,0,0,1,0-.74c.08-.17.14-.25.29-.28s.19.11.14.26-.27.28-.26.43ZM28,50.82c.16,0,.14.12.08.15a.24.24,0,0,1-.24,0c-.06,0,.1-.12.16-.11Zm4.66,6.47c0-.12.33-.19.32-.4a1.14,1.14,0,0,1,.22-.56c.06-.11.05-.29.18-.44s.39-.38.46-.48A.51.51,0,0,0,34,55c0-.16.17-.25.31-.27s.21-.41.16-.66.15-.25.14-.61a2.07,2.07,0,0,0-.15-.5,2.49,2.49,0,0,0-.09-.37,1,1,0,0,0-.47-.46,2.34,2.34,0,0,0-1-.22,1,1,0,0,0-.53.18c-.29.15-.32.19-.5.05s-.19-.27-.26-.35-.16-.47,0-.56a1.17,1.17,0,0,0,.4-.51c.19-.37-.15-.59-.31-.67a.82.82,0,0,0-.67,0c-.35.14-.32.52-.51.59a1.33,1.33,0,0,0-.39.21,2.69,2.69,0,0,1-.32.19c-.19.16-.15.26-.4.39-.08,0-.09-.05,0-.16a.31.31,0,0,0,.06-.29.23.23,0,0,0-.22-.17c-.17,0-.13-.08,0-.14s.4.06.59,0a1.69,1.69,0,0,0,.41-.39c.18-.21,0-.62.16-.72s.12-.19,0-.16-.27-.15-.08-.24,0-.19,0-.31.12,0,.11-.15,0-.14-.16-.22-.19.09-.14-.26a.61.61,0,0,0-.14-.53c-.08-.11-.26-.16-.28-.11-.08.21.15.38,0,.71a1,1,0,0,1-.21.2.66.66,0,0,1-.44,0,.8.8,0,0,1-.35-.22.63.63,0,0,1-.08-.45c0-.11.19-.5.15-.5a.85.85,0,0,0-.45.26.39.39,0,0,0,0,.36c.05.1-.09,0-.15.11a.24.24,0,0,0,0,.29c.07,0,.27.16.26.35s0,.15-.22.26c-.39.23-.25,1-.2,1s.17.07.22.12-.11.18-.23.21-.42.3-.2.19a.56.56,0,0,1,.36,0,.28.28,0,0,1,.21.34l0,.07c-.13.34-.75,0-.74.1a.56.56,0,0,0,.81.09c.12-.15.12-.2.26-.2s.5.15.5.25-.37.14-.49.12a.9.9,0,0,0-.54.22c-.13.09,0,.24.14.23s.17,0,.29-.1.26,0,.12.2a1.8,1.8,0,0,1-.49.32c-.17.09-.11.23.05.23s.58-.22.55-.13a4.89,4.89,0,0,1-.6.41c-.06.07-.15.13,0,.21a.28.28,0,0,0,.27,0,2.94,2.94,0,0,0,.44-.35c.26-.24.51-.48.66-.65a4.86,4.86,0,0,0,.33-.44c.09-.1-.15.38-.39.66L29,52.5c-.07.06-.42.43-.56.53s-.34.09-.28.2.18.13.35.06a4.1,4.1,0,0,0,.67-.58c.16-.16.78-1,.79-1a8.2,8.2,0,0,1-.61,1,7.24,7.24,0,0,1-.67.69,3.61,3.61,0,0,0-.35.36c-.06.11.06.32.22.38a.25.25,0,0,0,.3-.07l.58-.94a7.07,7.07,0,0,1,.75-1c-.05.11-.5.8-.68,1.13s-.52,1-.55,1a1.28,1.28,0,0,0-.15.25c0,.23.3.21.5,0a2.25,2.25,0,0,0,.42-.7c.08-.22.15-.48.23-.66s.43-.8.3-.42c-.08.2-.2.85-.27,1.06a4.56,4.56,0,0,1-.66,1c-.25.3-.54.09-.67.33a1,1,0,0,0-.07.59,7.28,7.28,0,0,1-.45,1.12c-.07.15-.54.48-.57.63s.44,0,.71.06.57-.79.7-.91a1.43,1.43,0,0,0,.31-.74.38.38,0,0,1,.17-.37c.1-.07-.12-.44,0-.47s.29-.38.29-.38,0,.31-.07.39.41.39.5.79a.8.8,0,0,1,0,.55c-.05.06-.16.12-.21.07s-.05-.31-.24-.23,0,.23.07.27.09.62,0,.7-.32.13-.21.26.9.06.87-.05,0-.36.13-.39,0-.22-.06-.45a2.57,2.57,0,0,1,.09-.61,1,1,0,0,1,.25-.55c.1-.1.25-.94.07-.9s-.21-.21-.11-.29a2.91,2.91,0,0,0,.56-.79,2.48,2.48,0,0,0,.19-1.21c.08,0,.22.37.24.7a1.69,1.69,0,0,1-.2,1c-.27.49-.47.41-.32.56a1.8,1.8,0,0,0,1.94-.12c.31-.31.43-.53.45-.49s-.12.45-.26.49,0,.6,0,.6.1,0,0,.14a8.84,8.84,0,0,0-.9,1c-.24.19,0,.33-.39.65-.11.08-.17.59-.05.59.39,0,.63,0,.69-.12Zm0,1.36s.28-.11.28-.19-.19-.53-.36-.52-.18,0-.15.12a1.72,1.72,0,0,0,.23.58Zm-.38.9c-.09,0-.1-.07-.08-.1s.1,0,.17,0,0,0,.06.07-.08,0-.15,0Zm-.29-.8c-.08-.11-.31-.72-.21-.78a.16.16,0,0,1,.24,0h0c.05.1.22.41.16.51s-.16.27-.2.22Zm-.17.81c-.13,0-.16-.08-.14-.12s.15,0,.26,0,.08,0,.09.08-.1.06-.21.06Zm-.2.92c-.26.36-.54.35-.57.24s.26-.25.28-.45,0-.4.08-.4c.28,0,.4.35.21.61Zm-.33-.91c-.15,0-.18-.1-.16-.15s.18,0,.29,0,.1.06.11.1S31.46,59.57,31.34,59.57ZM31.07,58c-.08.05.11.64.25.75s.21,0,.34-.09-.09-.46-.13-.62a.66.66,0,0,0-.46,0Zm-.29,1.52c-.15,0-.18-.1-.15-.15s.17,0,.29,0,.09.07.11.11-.13.07-.25.07Zm.41-3.19h-.3v-.26a2.74,2.74,0,0,0-.08.5H31v.33h-.22V57c0,.06,0,.11,0,.17h.25v.27H31a.5.5,0,0,0,.29.24s.09-.09.21-.24h-.12v-.27h.3v0a3.19,3.19,0,0,0,.5-1,1.87,1.87,0,0,1,.34-.71h-.24v-.2h.3v.14c.27-.28.56-.29.66-.41s0-.19-.16-.12a2.79,2.79,0,0,1-1.89.12c-.09.37-.19.69-.26,1h.28v.34Zm-.75,2.26c-.09-.1-.39-.53-.23-.58a.58.58,0,0,1,.41.05.71.71,0,0,1,.2.54c0,.17,0,.3-.22.3s-.07-.2-.16-.3Zm-.37.78c0-.06.18,0,.3,0s.09.07.1.12-.13.08-.25.08-.17-.11-.15-.17Zm.17,1.34a.65.65,0,0,1-.43.09c-.16-.09.1-.48.06-.7s.33-.07.46,0c.29.11.12.49-.08.63Zm-.71-1.17c-.18,0-.2-.12-.17-.18s.19,0,.33,0,.1.08.11.12-.14.09-.27.09Zm.13-1.45a1,1,0,0,1,.25.72c0,.12-.2.13-.34.11s.08-.16,0-.39-.34-.38-.43-.46,0-.14.08-.14a.65.65,0,0,1,.44.16Zm-.24-1.42c0,.07-.11.12-.16,0a.38.38,0,0,1,.06-.42c.11-.08.1-.19.14-.21s.1.31,0,.33S29.39,56.62,29.42,56.71Zm-.24,1.86h0c.06-.1-.29-.43-.53-.51a.79.79,0,0,0-.5,0c-.24.07.2.32.29.45s0,.24,0,.39.24.13.4.1.3-.28.36-.39Zm-.34,1c-.18,0-.21-.13-.18-.2s.21,0,.35,0,.11.08.12.14-.15.09-.29.09Zm-.55,1.31c-.17,0-.12-.18-.11-.43s-.07-.42,0-.46.36-.06.51,0,.19.48.19.77S28.73,60.87,28.29,60.91Zm-.37-1.5c0-.12.22-.07.38-.07s.13.12.14.17-.16.1-.32.1-.22-.13-.2-.2Zm-.34,1.45c-.19.08-.49.1-.48,0s-.25-.72-.12-.84.61,0,.72,0,.07.74-.12.81Zm-1-1.49c0-.08.25-.06.41-.06s.11.11.11.18-.16.18-.31.18a.22.22,0,0,1-.22-.23s0,0,0-.07Zm-.05,1.54c-.22.05-.63.08-.61-.09s-.32-.75-.18-.76.85-.09.91,0,0,.75-.12.8Zm-1.19-1.23c-.2,0-.14-.23-.15-.32s.23,0,.38,0,.12.1.13.17-.2.18-.36.19ZM25,60.94h0c.22.09.8.11.63-.26s0-.66-.2-.7-.44-.09-.54,0a1.74,1.74,0,0,0,.11.95Zm-.33-.11c0,.13-.36.17-.57.11s-.43-.86-.19-.92a1.58,1.58,0,0,1,.65,0c.15,0,.14.68.11.81Zm-1.3-1.48c0-.1.32-.05.54,0s.19.11.19.19-.19.18-.43.18S23.32,59.57,23.33,59.35Zm.25,1.56a1.07,1.07,0,0,1-.67,0c-.13,0-.32-.79-.22-.83a2.67,2.67,0,0,1,.63,0C23.57,60.08,23.63,60.84,23.58,60.91Zm-1.16-1.58c0-.1.33,0,.55,0s.18.13.18.21-.24.16-.46.18a.24.24,0,0,1-.29-.17.35.35,0,0,1,0-.17Zm0,1.52c.06-.07.15-.69,0-.74a2.75,2.75,0,0,0-.81,0c-.1,0,0,.71.19.77a.9.9,0,0,0,.64,0Zm-.8-1.63h.7a1.54,1.54,0,0,1-.21.47,3.53,3.53,0,0,1-.65,0c-.06,0,.16-.48.16-.48Zm-.31,1.61c0,.09-.3.07-.47,0s-.23-.63-.23-.71.66-.12.68,0a1.78,1.78,0,0,1,0,.69Zm-1.06,0c-.17,0-.45.07-.48,0a2.28,2.28,0,0,1,0-.69c0-.12.69-.09.69,0s0,.64-.23.71Zm-.94,0a.92.92,0,0,1-.65,0c-.06-.07-.15-.69,0-.74a2.09,2.09,0,0,1,.66,0c.09,0,.17.68,0,.74Zm-1.11.08h0c.14,0,.33-.79.22-.83s-.42,0-.62,0-.31.77-.26.84a1.11,1.11,0,0,0,.66,0Zm-.72-1.45c0-.1,0-.25.29-.25s.56-.05.56.07a.41.41,0,0,1-.44.35c-.24,0-.57.08-.41-.17Zm-.59.16a.41.41,0,0,0,.44-.34c0-.11-.32-.06-.56-.06s-.23.14-.29.23c-.16.24.18.16.41.17Zm.13,1.25c-.21.06-.63,0-.67-.11s-.28-.82-.14-.85a1.18,1.18,0,0,1,.67.08c.23.1.26.84.14.88Zm-1.24-1.44c0-.08,0-.21.21-.21s.4,0,.4.06a.33.33,0,0,1-.32.3c-.16,0-.4.07-.29-.15Zm0,1.37c.27,0-.06-.76-.16-.87s-.38-.08-.49-.06-.09.18-.07.61.48.33.72.32Zm-.76-1.35c0-.08,0-.21.21-.21s.39,0,.39.06a.31.31,0,0,1-.31.29c-.16,0-.4.07-.29-.14Zm-.47.12c-.17,0-.4.07-.3-.14s0-.21.21-.21.4,0,.4.06a.31.31,0,0,1-.31.29Zm-.39,1.21c-.22,0-.29-.65-.24-.79s.25-.14.41-.13.26.59.43.77-.38.19-.6.15Zm-.63-1.35c0-.07,0-.19.21-.19s.39,0,.39,0a.31.31,0,0,1-.31.28c-.17,0-.4.06-.29-.14Zm-.52,1.34c-.19-.07-.35-.88-.15-.9s.34-.06.44,0,.15.78.2.86-.3.08-.49,0Zm-.26-1.33c0-.06,0-.17.21-.17s.4,0,.4,0a.3.3,0,0,1-.32.26c-.16,0-.4.06-.29-.13Zm.55-1.81c.11,0,.34.1.27.13s-.37.11-.37.27a1.06,1.06,0,0,0,.19.52c.09.08-.19.12-.34.05a.94.94,0,0,1-.33-.5c0-.11.33-.42.58-.47Zm-.63.05c.11-.11-.15-.21-.3-.16a.86.86,0,0,0-.55.58c0,.1.15.44.3.47a1.26,1.26,0,0,0,.51,0c.12-.05-.14-.34-.26-.55s.19-.19.3-.3Zm-.39,1.88c-.15,0-.37,0-.27-.13s0-.17.19-.17.36,0,.36.05a.28.28,0,0,1-.28.25Zm-.14,1.21c-.37.22-.49-.19-.51-.48s-.07-.41.05-.42a.34.34,0,0,1,.34.13c.08.1.39.62.12.77Zm-.85-1.36c0-.06,0-.15.18-.15s.35,0,.35,0a.28.28,0,0,1-.27.23c-.15,0-.35,0-.26-.12Zm-.24-1.37a1.13,1.13,0,0,1,.55-.46s.31,0,.25,0-.33.24-.33.31.23.5.17.53-.32.1-.39,0-.3-.3-.25-.42ZM10.69,58c0-.11.36-.29.4-.33s-.09-.13-.25-.11a2,2,0,0,0-.68.47c-.05.08.19.39.32.46a.49.49,0,0,0,.41-.06s-.19-.33-.2-.43Zm.16,1.57c-.12,0-.31.05-.22-.1s0-.15.16-.15.3,0,.3,0a.23.23,0,0,1-.24.21ZM11,60.71c0,.09-.1.14-.25,0s-.28-.77-.07-.8.32,0,.37.12-.09.51,0,.68Zm-.72-1.19c-.13,0-.31,0-.23-.09s0-.13.16-.13.31,0,.31,0A.22.22,0,0,1,10.26,59.52Zm-.65-1.08c-.18,0-.65-.44-.57-.55a2,2,0,0,1,.82-.34c.18,0,.42,0,.29.1s-.38.22-.48.3.27.3.25.37-.14.13-.32.12Zm.05,1.09c-.13,0-.31,0-.23-.09s0-.13.16-.13.31,0,.31,0a.23.23,0,0,1-.24.18Zm.16.64c0,.2-.08.47-.09.53s-.26.06-.32-.13-.15-.61.13-.6c.09,0,.32,0,.28.2Zm-.73-.65c-.11,0-.27,0-.2-.08s0-.1.14-.1.27,0,.27,0a.2.2,0,0,1-.21.16Zm-.31-1.44s-.19-.2-.14-.23A1.54,1.54,0,0,0,9,57.68s-.17-.14-.32-.13-.56.11-.47.24a1.25,1.25,0,0,0,.42.37.2.2,0,0,0,.17-.09ZM8.6,59.51c-.08,0-.19,0-.14-.07s0-.09.1-.09.18,0,.18,0a.15.15,0,0,1-.14.13Zm-.52-1.78c-.07,0-.26.15-.21.23s.21.18.1.2-.14.07-.24,0a.51.51,0,0,1-.18-.41.55.55,0,0,1,.35-.2c.12,0,.26.13.18.18Zm-.74,0a.2.2,0,0,0-.1.27.18.18,0,0,0,.07.08c.15.12,0,.17-.25.15a.3.3,0,0,1-.26-.31.19.19,0,0,1,0-.08.57.57,0,0,1,.41-.31c.13,0,.22.16.11.2Zm-.88-.48a1.15,1.15,0,0,1-.71-.7,1,1,0,0,1,0-.66l0-.07a.14.14,0,0,0,0-.18h0c-.06,0-.12-.39,0-.49a3.16,3.16,0,0,1,.56-.33,1,1,0,0,0,.46-.17.27.27,0,0,0,.07-.27c0-.12-.18-.17-.28-.38a1.7,1.7,0,0,1,.08-1.12c.1-.14.29-.35.35-.44l0-.1c0-.11.09-.3-.13-.28s-.3,0-.29-.38c0-.12,0-.41.13-.48s0-.39.09-.57.16-.53.05-.63-.12-.65-.11-.79-.23-.4-.35-.35,0,.24,0,.24a.3.3,0,0,0-.17-.12.8.8,0,0,1,.43.69c0,.55-.11.3-.25.59s0,.42-.11.51-.46-.29-.5-.45,0-.42.1-.5S6,49.6,6,49.41s0-.47.17-.49h0s-.1-.47,0-.55a.34.34,0,0,0,.18-.3.42.42,0,0,1,.1-.3s.3-.11.33-.17a.41.41,0,0,1,.34-.21c.19,0,.24,0,.42,0s.34,0,.46.09a.23.23,0,0,1,0,.33H8a.42.42,0,0,0,0,.47c.11,0,0-.25.25-.39.06,0,.16-.16.2-.16s.12.46.08.59.09-.2.24-.21.16.36.08.41a.73.73,0,0,0-.17.31c0,.2,0,.3.17,0,.05-.11.2,0,.21,0a.25.25,0,0,1-.09.32.55.55,0,0,0-.17.2c-.07.13,0,.32.13.26s.1-.25.16-.29.16.06.19.14a.13.13,0,0,1,0,.18l0,0c-.12.07-.29.3-.16.28s.37-.1.39-.07.09.21-.12.35a1.39,1.39,0,0,0-.27.21.09.09,0,0,0,.06.15c.32,0,.39-.18.53-.11s0,.34,0,.4-.45.28-.32.3a1.28,1.28,0,0,0,.51-.17c.13-.08.08.21,0,.29s-.42.08-.47.16.16.24.46.13a.67.67,0,0,1,.28,0,1.42,1.42,0,0,0,.42.15,1.06,1.06,0,0,0,.43-.12,1.23,1.23,0,0,1,.57-.1,1.51,1.51,0,0,1,.89.3,1,1,0,0,0,.66.15c.13,0,.54-.08.68-.38a1.14,1.14,0,0,0,0-.94c-.17-.29-.29-.77,0-1s.23-.41.26-.65.51-.55.63-.64a.51.51,0,0,0,.25-.35.28.28,0,0,1,.33-.21h0c.15,0,.19.17.07.32a1.54,1.54,0,0,1-.35.37c-.08,0-.34.15-.32.29s.21.14.33.33,0,.36,0,.39l-.32.13c-.08,0-.11.11-.09.14s.21.11.24.17-.06.18-.19.18a.1.1,0,0,0-.08.11.12.12,0,0,0,.06.08.22.22,0,0,1,.12.3.26.26,0,0,1-.1.11.23.23,0,0,0-.16.18.12.12,0,0,0,.08.15h0c.1,0,.08.21,0,.26s-.13.12-.11.24.11.27,0,.43a.84.84,0,0,1-.5.28c-.21,0-.26.13-.51.12s-.66.16-.87.12-.12.08,0,.18c.43.41.09.87.27,1.11.41.53.73,1.08,1,1.13a2.76,2.76,0,0,1,.74.28c.12.1,0,.3-.05.37s-.12.26,0,.3.3-.08.41.07a4.93,4.93,0,0,0,.35.61.81.81,0,0,1-.06.7c-.12,0-.42.2-.58.11s.16-.34.13-.51a1.66,1.66,0,0,0-.35-.62c-.15-.18-.47-.7-.69-.76s-1-.68-1.29-.66a3.2,3.2,0,0,1-2.09-.9c-.2-.19-.15,0-.15.31a.4.4,0,0,1-.44.37h0c-.37-.06-.52-.39-.65-.53a.86.86,0,0,0-.45-.24c-.25-.06-.45-.71-.5-.73s.15.85,0,1-.52.71-.87.79a7.27,7.27,0,0,1-.81.17c-.19,0-.39.37-.16.48s0,.84,0,.91a1.64,1.64,0,0,0,.44.09c.09,0,.12.19.17.33s.16.19.11.23-.1.08-.46,0Zm.12.28s-.11-.13-.19-.1-.48.2-.49.3.24.37.31.42a.42.42,0,0,0,.31,0c.09,0-.31-.27-.25-.31s.29-.29.31-.31ZM5.47,55c.14-.24.66-.31.66-.47,0-.33-.17-.26-.47-.23-.12,0-.42-.15-.51,0s0,1.5-.06,2a1.47,1.47,0,0,1-.28,1c-.12.13.44,0,.49-.56A10.67,10.67,0,0,1,5.47,55ZM4.32,57.4c0-.19.1-.39.16-.58.08-.45.09-1.36.13-1.85s0-2.2,0-2.85c0-.3-.09-2.15-.16-2.66a7.26,7.26,0,0,1-.06-1.14c0-.26.34.76.43,1.44.06.41.08,2.11.08,2.46,0,.69.2,3.8-.21,4.73-.09.2-.33.57-.39.45Zm-.44-1.12h0a6.36,6.36,0,0,0,.51-2.07,33.36,33.36,0,0,0-.08-3.48,6.1,6.1,0,0,0-.56-2.42c-.18-.2-.34-.24-.36,0,0,.12.24.45.3.59a7.4,7.4,0,0,1,.36,1.79c0,.3.06,2.66.08,3.48a7.19,7.19,0,0,1-.36,2.06c0,.15,0,.26.11,0ZM3.34,55s0-2.06.05-2.66-.07-2.87,0-3a10.67,10.67,0,0,1,.25,2.33c0,.47,0,3.29-.3,3.29Zm-.56-1.91A1.87,1.87,0,0,0,2.72,52c-.05-.15.45.13.45.55s-.45.74-.39.55ZM5,48.56c-.12.39.19,5.09.19,5.09A5.5,5.5,0,0,1,5.63,53,19.93,19.93,0,0,0,5,48.56Zm.92,4.35c.25-.13.48-1.34.48-1.48s-.58-.8-.74-.79,0,2.4.26,2.27ZM5.82,54c.27,0,.22-.19.21-.45a.29.29,0,0,1,.16-.27l.21,0,0-.22s-.54,0-.72.13-.41.62-.36.74.19.08.47.1Zm-.53-6.88c.1-.44,0-.43.39-.48.18,0,0,.16-.06.35s.16.33,0,.33c-.34,0-.39,0-.33-.2Zm0-1.83c.07-.07.29,0,.29.07s-.14.13-.08.28,0,.28-.11.14-.16-.43-.1-.49Zm0-.55c-.23.23.36.63.64.53s.33-.55.42-.66a2,2,0,0,0,.32-.49,1.59,1.59,0,0,0,.06-.43c0-.25.15-.54.11-.68s-.33-.18-.46.54-.28,1-.44,1.1-.43-.13-.65.1Zm.58.72h0c-.17,0-.12.34-.12.34s0,.3-.17.34-.35.07-.2.29.46.11.6.05.08-.32,0-.41.19,0,.15-.25-.13-.41-.31-.36ZM6.59,47c.06.2,0,.25-.24.25s-.43-.22-.2-.51a.71.71,0,0,1,.64-.36c.12,0,.24.24.11.26s-.36.21-.31.36Zm.81-1.2a.63.63,0,0,1-.67.49c-.21,0,.14-.34.23-.56s-.35-.7-.39-.27-.27.13-.17-.23A.36.36,0,0,1,6.84,45l.09,0c.25.13.6.3.47.75Zm-.16-2.12h0c-.14.27-.2.27-.16.43a7.62,7.62,0,0,1,.22.82c0,.34.58-.19.71-.33s-.22-.62,0-.82.31-.19.28-.23c-.2-.23-.22-.34-.52-.33-.14,0-.36.11-.55.46ZM7.66,47h0c0-.25.18-.6.18-.68s-.26,0-.35,0-.48.48-.44.75.64.13.61-.07Zm1.51-3.21a1.11,1.11,0,0,0,1-.25,1.37,1.37,0,0,0,.47-.9,6.44,6.44,0,0,0,.13-1.16c0-.16-.16-.07-.19.46a1.23,1.23,0,0,1-.29.8c-.11.14-.21.32-.33.13s.12-.73.24-1.19c.08-.31-.14-1-.31-.43s0,1.47-.41,1.66c-.17.09-.47-.05-.29-.46a5.31,5.31,0,0,0,.26-.86c.08-.3.19-.71.21-.88s0-.32-.15-.32-.14.36-.16.57c-.05.51-.11,1.15-.28,1a3.37,3.37,0,0,1,.09-1.38c.05-.27.14-.59.22-.93s0-.72.09-1a4.58,4.58,0,0,0,.33-.87c.05-.34.22-.61.3-.94A5.78,5.78,0,0,0,10.26,34,13.84,13.84,0,0,1,10,30.48c.09-.14.58-.18.79-.34s.25-.51.31-.6.55-.32,1-.77c.13-.14,0-.87.37-.92s.49.61.33.87.57.63.62,1-.15.19-.1,1a30.45,30.45,0,0,0,.36,3.56c.08.4.21.79.32,1.32s-.24.73-.13,1.47a.87.87,0,0,1-.18.74c-.33.43-.6.61-.65,1.27-.07.92-.58,1.8-.5,1,0-.22,0-.92-.08-.76a10.26,10.26,0,0,1-.42,1.52c-.29.48-.14.68-.15,1.26,0,.33-.62.57-.5,1s-.59,1.1-1,1.54c-.19.18,0,.25.3.11s.55-.43.58-.38-.26.73-.72.82c-.17,0-.53,0-.66.11s-.36.23-.52.35a.8.8,0,0,1-.57.2c-.13,0-.29.36-.4.15a4.62,4.62,0,0,1,.11-.63c0-.24-.2-.3-.24-.2s0,.49-.23.49-.33-.5-.11-.71a.47.47,0,0,1,.52-.16c.19,0,.33-.12.09-.3a.6.6,0,0,1-.13-.77c.24-.25.22-.08.78,0Zm0-9.54c0,.4.13,1.34.29,1.34s.18-.22.27-.51a14,14,0,0,0,0-2.17,4,4,0,0,0,.1-.91c0-.31-.46-1.64-.68-1.56s-.21,2-.12,2.79.15.81.16,1Zm-.29-8.84c.08-.17.28-.73,0-.93a1.63,1.63,0,0,0-.74-.35c-.23,0-.41-.32-.5-.51-.18-.37.13-.82.33-.79.4.06.27.64.65.69s.45-.58.34-.79-1-.56-.85-1.26c0-.33.2-.31.35-.3.31,0,.46.34.71.35s.37-.32.33-.61-1-.82-1.13-1,.27-.65.49-.75.35.39.65.5.34,0,.42-.12c.24-.44-.76-.62-1.06-1.38-.12-.3.36-.64.66-.79s.5.42.73.38a.33.33,0,0,0,.14-.44c-.31-.35-.74-.35-.83-.5-.23-.36-.46-1.39,0-1.4.16,0,.53.69,1.05.64.22,0,.29.07.29.29s.23.44.38.66A.92.92,0,0,1,10.9,18c-.35.23-.8,0-1-.13s-.15.26.31.43.87,1.07.41,1.41-1,.18-1.09.29.1.14.24.22.11.19.22.31.53.16.3.74-1.13.62-1,.76c.38.44.53.5.52.77a1,1,0,0,1-.72.87c-.29.05-.51.05-.1.32.21.14.82.26.55.91s-.77.64-.69.47Zm-.44,4.89h0a.5.5,0,0,0,.33-.49c0-.41,0-.92-.29-1,0,0-.33,0-.31.17s.22.35.21.64-.16.16-.32.33,0,.43.38.36ZM7.8,27.06c.06-.08.42,0,.61-.09a.64.64,0,0,0,.19-.89v0a2.18,2.18,0,0,0-.81-.84c-.13-.07,0-.28,0-.38s-.25-.51-.5-.25c-.1.11,0,.41,0,.59a1.16,1.16,0,0,0,.37.64c.2.15.65.3.52.68,0,.1-.2.26-.54.25a1,1,0,0,1-.69-.4c-.19-.26-.37-.17-.37,0a1,1,0,0,0,.59.72.55.55,0,0,1,.34.62c0,.2-.57.41-.36.48a.58.58,0,0,0,.65-.32c.12-.25,0-.71,0-.79Zm-1.92-1.6c.18-.12.17-.26.14-.46s-.55-.61-.6-.94-.15-.57,0-.54c.32.07.38.56.71.8s.65.76.46,1.05c-.35.52-1,.32-.68.09Zm-.32-3.68h0a.82.82,0,0,0-.14.81c.13.27.56.34.72.59s.46.38.18.65-.24.39-.08.38.63-.47.62-.61-.33-.28-.27-.5.37-.2.55-.31a.88.88,0,0,0,.39-.71c0-.3-.51-.49-.78-.79s-.06-.41,0-.34c.28.25,1.05.33,1.13.07s.18,0,.24-.33a.84.84,0,0,0-.43-.9c-.18-.05-.62-.46-.5-.44a1.61,1.61,0,0,0,.87-.07c.27-.1.09-.27.34-.37a1.11,1.11,0,0,0,0-.84,5,5,0,0,0-.68-.53A1,1,0,0,1,7.4,17c0-.1.06-.21.36-.15s.14-.17.14-.17-.27-.16-.31-.29-.34-.36-.5-.25a1.44,1.44,0,0,0-.43.93.89.89,0,0,0,.31.75c.24.23.89.59.83.78s0,.4-.31.4-.69-.54-.85-.62-.41.06-.31.45A3.15,3.15,0,0,0,7.1,20c.29.26.24.65.1.68-.42.07-.43-.14-.54-.26s-.42-.74-.76-.65-.19.91.06,1.13c.76.65.3.66.66,1s0,.79-.25.84S6,22.34,6,22.16s-.31-.5-.45-.38ZM2.86,9.42c.07-.15.56-.15.66-.06s.15.24,0,.26c-.42.07-.35-.1-.45-.1s-.23,0-.21-.1Zm2.62,6.87c-.32.81-.18-.1-.25-.08-.22.06-.27.49-.4.63A1.18,1.18,0,0,1,4,17c-.17,0,0-.61,0-.73.23-.49.31-.62.49-.62a2.63,2.63,0,0,0,.79-.09c.11,0,.14-.24.32-.39s-.15-.35-.06-.39.25-.32.32-.59a.68.68,0,0,0-.29-.73c-.21-.15-.74-.64-.77-.88s-.7-.87-.37-.68A1.11,1.11,0,0,0,5.81,12c.31-.24.42-.38.47-.61s-.15-.27-.21-.19a.85.85,0,0,1-1,.45c-.35,0-.34-.08-.1-.17s.31-.14.19-.23a3.44,3.44,0,0,0-1.67.06,7.07,7.07,0,0,1-.91.55c-.19,0-.5.11-.2-.16A6.32,6.32,0,0,1,3,11.13c.17-.12,0-.72.13-.93s.22-.5,1.28-.5c.2,0-.18-.51-.47-.49-.13,0-.25-.48-.78-.48a1,1,0,0,0-.67.44c-.16.26-.21.86,0,.85s.36.22.37.49a.7.7,0,0,1-.53.76.84.84,0,0,0-.6.68.7.7,0,0,1-.26.57.6.6,0,0,1-1-.35,1.87,1.87,0,0,1,.81-1.31c.24-.14.34.09.36-.27s.17-.62.37-.69,0-.82.06-1A2.32,2.32,0,0,1,3.26,8a2,2,0,0,0,1-.36c.21-.22.26-.64.45-.65.36,0,.49.51.83.67s1,.35,1.09.62c.32.62-.36.64-.42.71-.55.59-1.4.24-1.44.37s0,.19,0,.19c.31.05.9-.09,1.22.07a1.06,1.06,0,0,1,.7.95c0,.2.57-.17.13.58a1.66,1.66,0,0,0-.15.58,2.09,2.09,0,0,0,.16,1.35c.28.49.1.6-.13.89-.38.5.12,1.42-.16,1.46a1.08,1.08,0,0,0-1,.83Zm-2-.15C3.26,16,4.47,15,4.6,15a1.62,1.62,0,0,1,.62-.07c.08,0,.3,0,.3.07s-.15.21-.4.18a.92.92,0,0,0-.59.24c-.26.16-.92.87-1.07.77Zm.88-2.58a.22.22,0,0,0-.1.21c0,.1.34.42.42.38s0-.24,0-.36-.25-.26-.31-.23Zm-1.53,2h0c.17.18.66-.05.53,0l.14,0c.32,0,.26-.2.32-.24A4.36,4.36,0,0,1,4.22,15c.25-.09.1-.24.31-.33s1-.16,1-.35-.4-.82-.52-1-.6-.85-.83-.9-.18.21,0,.31,0,.2.11.38a7.59,7.59,0,0,0,.63.5.54.54,0,0,1,0,.66c-.16.2-.53.26-.79.38s-.42.42-.42.3a1.52,1.52,0,0,0-.19-.59c-.15-.09-.08.59,0,.55s-.24.28-.16-.19a.87.87,0,0,0-.42-.82c-.22-.07-.28.14-.25.32s.47.52.35.67-.45-.49-.57-.41.14.67.43.74-.17.2,0,.34Zm-.63-1.48c0,.25.31-.29.36-.4s.17-.22.12-.34a.41.41,0,0,0-.27,0,1.54,1.54,0,0,0-.21.72Zm1-.61c.17-.27.51-.4.6-.52s-.1-.11-.15-.1-.53.39-.66.49.09.33.21.13Zm1,.73c0-.08-.23-.26-.31-.24a.27.27,0,0,0-.17.19c0,.09.13.17.26.21a.16.16,0,0,0,.21-.08.22.22,0,0,0,0-.08ZM4,13.41s0-.19-.15-.15-.65.28-.74.45,0,.24.17.18A4.1,4.1,0,0,0,4,13.41ZM1.77,14c.05,0,.12-.19.29-.44s.22-.28.38-.29.44,0,.52-.17a7,7,0,0,1,.65-.89c.2-.24.29-.28.33-.43s0-.25-.19-.21-.66.49-.94.6a5.27,5.27,0,0,0-.84.26,2.12,2.12,0,0,0-.64.78c-.1.27,0,.52.21.05.07-.16.36-.29.57-.36s0,.19-.22.41c-.27.37-.18.67-.12.69ZM6,5.67a.71.71,0,0,0-.75.9c.1.58.55.76,1.1.84s1.1.47,1.1.72a1.25,1.25,0,0,1-.68,1c-.25.15.2.49,1-.14a1.36,1.36,0,0,0-.72-2.23c-.08,0,.24-.06.43,0a1.22,1.22,0,0,1,.59.51,2.21,2.21,0,0,1,.32,1.6A1.68,1.68,0,0,1,7,9.76c-.12,0,0,.24.17.26a1.43,1.43,0,0,1,.83.23c.18.11.14.72-.08.75s-.37-.21-.5-.19-.16.44,0,.61c.39.36.73.13,1,.3.14.07.11.25.18.31s0,.24-.07.36-.2.54.19.42a1.4,1.4,0,0,0,.51-1.15c0-.57-.59-.86-.84-1.07s-.21-.38,0-.35c.44.07.72.64,1,.45.46-.29.13-1.32-.34-1.65s.36,0,.51-.17,0-.38-.28-.63c-.08-.07,0-.21.17-.27s.54-.11.32-.64c0-.08.14-.06.16-.14.08-.59-.16-.09-.15-.78,0-.86-.4-.69-.41-.85s.08-.84-.73-.89-1,.53-1.66.76c-.21.08-.41-.38-.74-.35-.12,0-.22.18-.12.25s.48.27.45.47c-.08.52-.16-.07-.57-.13Zm4,2.43c.27.24.21.79.74.86.14,0,.39-.08.51,0a1.18,1.18,0,0,0,.89,0c.12-.13-.08-.53-.46-.61s-1,.07-1.34-.2a.69.69,0,0,1-.2-.91c.11-.16-.21-.37.15-.64s1.25-.09,1.67.07a4.9,4.9,0,0,1,1.19.88.82.82,0,0,1,.07.88c-.1.21-.41,0-.53-.4a2.48,2.48,0,0,0-.65-1c-.12-.1-.42-.1-.43,0s.4.38.56.61c.41.58.7,1.37.19,1.66-.18.11-.85-.07-.68.08s.07.4.23.52a.89.89,0,0,1,.46,1,.61.61,0,0,1-.68.5c-.18,0,.16-.92-.2-.89a1.1,1.1,0,0,1-1.1-.54c-.12-.34-.29-.24-.41-.32a.24.24,0,0,1-.1-.32l0,0a.85.85,0,0,0,0-.92c-.2-.2-.12-.49.12-.28Zm.18-2.49c-.14.07,0,.49.11.6s1.14.07,1.34,0-1.11-.76-1.45-.58ZM12,5.86h0c-.08,0,.15.15.21.26s0,.3.16.4.63.22.82.49.07-.33-.35-.82A1,1,0,0,0,12,5.86Zm1.33,5.19a1,1,0,0,0-.13-.87c-.22-.27,0-.4.07-.63a1.16,1.16,0,0,0,0-.78c0-.11-.1-.12-.16,0s.06.42-.22.68-.64.1-.73.22,0,.29.33.44c.18.08.18.35.35.5a.61.61,0,0,1,.16.56c0,.14.28.06.34-.12Zm.09,2a2.76,2.76,0,0,0-.09-.9c-.12-.38-.43-1-.58-.81a.77.77,0,0,0-.29.69c.09.47.44.2.55.67s.42.44.41.35Zm.12.54c.24-.07.29,1.9-.08,2.06-.14.06-.13.41-.1.73s-.23.18-.42.59-.15.7-.33.58-.08-.41-.08-.71a2,2,0,0,0-.34-1.05c-.21-.38,0-.46.29-.43s.44.89.55.64a1.5,1.5,0,0,0,0-.73c0-.14-.15-.15-.37-.42a1.26,1.26,0,0,1-.05-.81c.05-.27-.17-.14-.26-.66-.05-.22.23-.36.32-.28s0,.27.25.39.31.21.31.42.13.42.13.42-.05-.69.15-.74Zm0-6.17c0-.26.17-.43.4-.32a.81.81,0,0,1,.34.77.58.58,0,0,0,.31.63c.19.05.32-.11.34-.4a1.81,1.81,0,0,0-.38-.94c-.24-.35-.57-.26-.69-.74-.2-.8.08-.89.11-1.21s.15-.71.41-.73.46.17.43.63c-.06.93.07.26.13.14a2.34,2.34,0,0,0,.23-.51A.84.84,0,0,0,15,4a.7.7,0,0,1-.16-.59c0-.19.12-.23.3-.33s.17-.26,0-.3-.19.06-.31.11-.17-.46-.18-.68a.64.64,0,0,1,.45-.62c.34-.16.42-.05.63,0a.5.5,0,0,0,.53-.15c.12-.13.18-.3.42-.34s.32,0,.66.28a1.86,1.86,0,0,1,.61.89c.12.26.14.38.08.52a.19.19,0,0,1-.28,0,.08.08,0,0,1,0,0,5.09,5.09,0,0,0-.34-.47c-.15-.15-.21-.37-.47-.42s-.32-.14-.08.1a2.89,2.89,0,0,1,.55.7c.1.25-.08.21-.14.21a1.23,1.23,0,0,1-.43-.42.61.61,0,0,0-.51-.28c-.18,0-.35.28-.53.3s-.28-.07-.4,0,.32.17.41.3,0,.11-.2.33.19.19.37.16.31-.3.33-.4-.1-.42,0-.49.32.26.37.39.11.52,0,.59a5.27,5.27,0,0,0-1.07,1.29,1.82,1.82,0,0,0,0,1c0,.22-.34.63-.43.83a2.14,2.14,0,0,0,0,1.15c.11.28.37.7.47.93a.57.57,0,0,1-.13.63c-.31.3-.24-.28-.39.06a1.38,1.38,0,0,1-.9.7.5.5,0,0,1-.57-.23c-.1-.1.09-.26.26-.38s.15-.29.16-.48-.21-.32-.37-.51-.07-.69-.07-.93ZM17.88,1.1h0a.75.75,0,0,0,.13.76c.14.19.47.52.45.66s.08.14.12.11a.67.67,0,0,0,.27-.46,1.18,1.18,0,0,0-.1-.92c-.29-.49-.74-.42-.87-.15Zm1.57,1.64h0l-.1,0c-1.63.29-3,.92-3.22,1.43s0,1.27-.14,1.41c-.36.3-.61.61-.59.88.06.77.72,1,1.2,1.49l0,.68s0,.16-.25.36-.34.3-.27.67.24.2.29.6-.22.14-.2.6c0,.3,0,.63.15.75s.19.1.65.22c.66.16.44.41.61.6s.29.34.42.1.29-.49.05-.76a1.57,1.57,0,0,0-.9-.36c-.34-.08-.42-.14-.43-.47s.14-.53.06-1a.48.48,0,0,0-.24-.36c-.21-.08-.3-.26-.18-.29.3-.09.35.33.55.4s.18-.09.2-.38c.05-.52-.27-.39-.27-.63s.05-.09.13-.36a1,1,0,0,0,.06-.25c.15-.13.32-.16.38-.36.32-1.1.69-.86.92-1.08s-.41,0-.82-.15a4.6,4.6,0,0,1-.62-.45,1.19,1.19,0,0,0-.53-.14c-.12,0-.38-.09,0-.15A4.1,4.1,0,0,1,17.56,6c.55.15,1,.39,1.58,0a1,1,0,0,0,0-1.51,1.17,1.17,0,0,0-1.51,0,3,3,0,0,1-1,.65A4.48,4.48,0,0,1,18,4,1.64,1.64,0,0,1,20.29,5c.3.8-.13.91-.23,1.44-.14.71.46.51.57.6s.15.14.51.14.46-.07.5-.12.51.06.35-.64c-.11-.53-.81-.74-.31-1.45.86-1.23,1.55-1.31,2.29-1a2.85,2.85,0,0,1,1.1,1.34c-.07,0-.08,0-.69-.62s-1.12-.5-1.54-.22-1.07,1.32-.5,1.71S24,6.16,24.48,6c.72-.27.95-.48.59-.06s-1.51.75-1.31.83c.43.16.62,1.21,1.09,1.36.14,0,.19,0,.33-.28s1-.59.95-1.13a1.61,1.61,0,0,0-.45-.84c-.16-.15-.08-.87-.4-1.46-.14-.26-.53-1.07-2.67-1.56a4.8,4.8,0,0,0-.5-.09s0,0,0-.08S22,2.33,22,2.13s.28-.31.25-.83S22,.66,21.81.66s-.25,0-.37.3a1.11,1.11,0,0,0-.09.76c0,.29.2.36.25.61s-.06.31-.06.31h0l-.46,0h-.15c-.07-.14,0-.11.2-.42a3.23,3.23,0,0,0,0-.8s0-.46-.23-.56a.47.47,0,0,0-.46.14.87.87,0,0,0,0,.92.58.58,0,0,1,.1.4c0,.23.06.3.09.32a8.72,8.72,0,0,0-.88.08h0a.58.58,0,0,1,.05-.29,2.51,2.51,0,0,0,.22-.67A.75.75,0,0,0,19.9.93a.61.61,0,0,0-.55-.15.4.4,0,0,0-.33.39.82.82,0,0,0,.22.67,1.07,1.07,0,0,1,.33.57.47.47,0,0,1-.12.32Zm2.93-.87a1.7,1.7,0,0,1,.24-.76,1,1,0,0,1,.77-.47c.29,0,.2.37.16.52a9.4,9.4,0,0,0-.43,1c-.09.28-.39.51-.54.44s-.23-.25-.2-.71ZM24,1.26a1.85,1.85,0,0,1,1.22-.21c.49.09.73.36.64.67s-.48.61-1,.83c-.31.14-.31.29-.2.37s.37,0,.52.06c.46.19.6.63.69.65s.24-.15.08-.39-.48-.49-.51-.69.24-.41.57-.25.09.51.27.76a1.36,1.36,0,0,1,.37.79,1.21,1.21,0,0,1-.46.89c-.31.23-.14.29-.1.31s.2-.22.38-.11.24.29.45.55.45.32.5.79a1.34,1.34,0,0,1-.17.81c-.43.72,0,.49.2.73a.44.44,0,0,1,.11.45c-.06.39-.3.61,0,1,.12.14.12.37,0,.44s0,.76-.13.85-.43-.31-.41,0,.3.32.23.52-.3.27-.36.17a3.06,3.06,0,0,0-.26-.51c-.09-.07-.27-.23-.15.1a2.07,2.07,0,0,0,.15.34c.06.11.05.18.06.49s0,.41-.13.47-.62-.42-.65-.6,0-.36-.14-.56-.38-.73-.15-1,.32-.06.4,0c.23.33.27.06.13-.2s-.25-.11-.25-.36a1.78,1.78,0,0,1,.37-1.22,1.76,1.76,0,0,0,.34-1.4,8.12,8.12,0,0,0-.69-1.07.72.72,0,0,1-.22-.77c.09-.48.23-1,.1-1s-.51-.6-.69-.53S24,3.14,23.93,2.88A.57.57,0,0,1,24.25,2c.52-.25.68.18.71-.06a.32.32,0,0,0-.42-.38c-.28.07-.44.06-.57.3s-.24.56-.4.57-.24-.25-.22-.37A1.44,1.44,0,0,1,24,1.26Zm4.21,9a3.32,3.32,0,0,0-.49,1.66c0,.31-.17.48-.37.78a.64.64,0,0,0-.06.6c.13.32-.37.94-.29,1.45s.34.47.55,1.2.14,1.38.24,1.59c.23.44.63.53.61,1s0,.86.3.87.16-.21.62-.95c.37-.58.32-1,.18-1s-.6.65-.82,1.11c-.13.27,0-.6-.29-.84-.08-.06.26-.1.37-.49s.4-.48.28-.63.09-.14.12-.27c.08-.42-.21-.49-.26-.46-.66.47-.68,1.08-.8,1.08s-.16-.4-.08-.78c.13-.6.43-.32.58-.88a4.75,4.75,0,0,0,.14-.63c0-.22.08-.88-.22-.92s-.3.18-.45.4a3.65,3.65,0,0,0-.32.54,1.26,1.26,0,0,0,0,.58c0,.41,0,.56-.17.12a2.08,2.08,0,0,1,0-1c.08-.44.36-.56.51-.95a2.37,2.37,0,0,0,.16-.79c0-.12-.06-.32-.17-.25a5.37,5.37,0,0,0-.5.57c-.06,0,0-.45.37-.74.07,0,.12-.08.12-.12s.09-.08.09-.15a6,6,0,0,1,.13-1.41c.1-.35,0-.32-.08-.28Zm4.52,5h0a2.39,2.39,0,0,0,1-.57,1.94,1.94,0,0,0,.43-1c0-.15,0-.54-.14-.63s-.67.45-.9.57,0,.2,0,.33A6.66,6.66,0,0,1,31.94,15c-.33.28-.33.43-.22.7s.16.56.4.56c.41,0,.43-.12.35-.19s-.29-.09-.32-.37.16-.41.54-.55Zm-3.53,5.12c.2.06.19.29.1.62a1.78,1.78,0,0,0-.08.84c.08.14-.34.08-.42-.43s.18-1.09.4-1Zm1.11,1.77c.51.32.61-.52.75-.9s.34-.34.5,0c.23.49-.11.69-.18,1-.22,1.05-.55.37-.48.87s.23.83,0,.83-.59-.5-.57-.8.18-.56.07-.67c-.25-.26-.67-.37-.78-1s.37-1.54.75-1.54c.13,0,.3.2.3.42s-.5.8-.61,1.08a.51.51,0,0,0,.22.66Zm-.37-3.42c.14,0,.22.31.22.53s-.47.72-.71,1-.32-.44-.24-.6.43-1,.73-.94Zm-.37-2.79c.06-.17.58-.42.66-.55s-.06-.26,0-.42.36-.21.53-.31a.73.73,0,0,1,.56.05c.29.17.17.47-.19.82s-1,.52-.92.64a.53.53,0,0,1-.07.59c-.18.24-.28.17-.42,0a.82.82,0,0,1-.15-.78Zm0-2.51a1.49,1.49,0,0,1,1.06-.52c.21,0,.16.72.31.88s-.16.32-.43.47-.6.18-.64.25c-.18.31.2.52,0,.63a.43.43,0,0,1-.63-.16,1.68,1.68,0,0,1,.36-1.55Zm-1.13-2.65c.08-.39.48-.55.58-.61s0-.47.13-.45a3.42,3.42,0,0,0,1-.06c.41-.12.68-.62.72-.41a2.78,2.78,0,0,1-.46,1.5c-.19.25-.59,0-.87.06s-.47.11-.51.35,0,.39-.2.34a.57.57,0,0,1-.4-.71Zm.39,2.08c-.15,0-.47-.32-.19-.53a3.24,3.24,0,0,1,.53-.45c.39-.21.06-.36.5-.47a6.73,6.73,0,0,1,.91-.26,1.49,1.49,0,0,1,.85.5c.16.12-.31.55-.76.72-.63.24-1.07,0-1.26.21s-.5.3-.11.58c.16.11.05.15-.2.13s-.14-.41-.27-.43Zm.68,12.51h0c.2-.29.52-.31.74-.78a1,1,0,0,0-.11-1.1c-.18-.1.15-.65-.23-.76s-.65.88-.74.59.59-.81.5-1a.39.39,0,0,0-.53-.11l-.06.06c-.25.19-.25.19-.37.06s-.42-.09-.41,0,.26.14.33.23.13.25.11.69.23.83.53.76.22-.75.35-.77c.3,0,.13.6-.16.9A1.91,1.91,0,0,0,29,25.4c.07.69.37.76.37.76s.29.19.1-.15a.7.7,0,0,1,0-.7Zm-.24,4.86c-.09.09-.57-.4-.27-.69s.48,0,.52.18S29.36,30,29.21,30.16ZM27,28.59c.07.12-.37.07-.37-.31s.26-.68.45-.68.26.37.18.56-.33.31-.26.43Zm-.3,7.48a6.28,6.28,0,0,1-.89,2.18c-.13,0-.21-.54.09-2.52a3.79,3.79,0,0,0,.11-.66c-.15-.66.12-.57.21-.88s-.21-.32,0-.64,0-3.12.47-3.24c.2,0,.46,1.16.26,3.09a23.65,23.65,0,0,0-.29,2.67Zm.67,6.67c-.06.18-.72,0-.89-.18a11.4,11.4,0,0,1-.14-3c0-.16.1-.94.4-1s.35.5.42.75a26.8,26.8,0,0,1,.21,3.36Zm.28.74a1.79,1.79,0,0,0,.32,1s0,.21,0,.25.07,0,.11-.08.31-.08.39.13a.6.6,0,0,0-.43.13c-.05,0-.19.31,0,.43s.33.38.17.38-.35.07-.4-.18,0-.37-.12-.77c0-.23-.19-.32-.33-.7s-.33-.53-.1-.77.44-.1.43.16Zm.66.36c0,.07-.07.22-.14.17s0-.54-.14-.71,0-.22.14-.22.15.6.14.76Zm.38.28c-.11.09-.16,0-.19-.1s.15-.36.08-.56-.2-.51-.11-.52.33.48.32.67,0,.42-.1.51Zm-.37,1c0-.11.05-.23.15-.22s.12.17.14.25a1.26,1.26,0,0,1,.07.51c-.06.1-.16.16-.28-.2a.81.81,0,0,1-.08-.34ZM27.51,51c-.05,0-.06-.14.07-.15s.17.07.13.11a.18.18,0,0,1-.2,0Zm-2.87,8a.44.44,0,0,0,.06-.32c-.08-.16-.48-.62-.34-.62s.18,0,.33.05.43.35.45.49.1.42-.08.46-.48.07-.42-.06Zm-.38.45c0-.1.32,0,.54,0s.17.12.19.19-.23.18-.45.18-.29-.14-.28-.32Zm-2.32-.43a.29.29,0,0,0,.11-.34c0-.07-.17-.33-.08-.35a1.89,1.89,0,0,0,.34-.09c.09,0,.42.59.26.74s-.7.1-.63,0Zm-7.21-12c-.06,0,0-.34.18-.67.1-.16.23-.38.41-.38h.49c.32,0-.13.26-.33.43s-.08.59-.21.63a1.63,1.63,0,0,1-.54,0Zm-2.54-.77c.08,0-.19-.15-.36-.13a1,1,0,0,0-.71.52c-.06.09-.2.44-.07.44h.59c.15,0,0-.52.55-.83Zm.43-2.4h0c-.37.09-.33-.28-.57-.19s-.07,1.08,0,1.3.26-.57.83-.72c.28-.08.58-1.07.36-1.22s-.37.78-.61.83Zm.17-1.08a1.57,1.57,0,0,0-.08-.31c-.16,0-.24.37-.24.48,0,.36.22.5.24.29a3.69,3.69,0,0,0,.08-.46Zm.3-2.37c.08-.34.32-.86.21-.79a2.34,2.34,0,0,0-.47.73,4,4,0,0,0,0,1.57c.1.07.22-1.17.3-1.51Zm.75-9.81c-.06.18-.26.42-.24.56s.1.63.1.87a6.53,6.53,0,0,0,.5,2.26c.16.11-.06-1.91.09-2.09s.22-2.38-.08-2.38-.31.6-.37.78Zm-.3-2.63c-.13,0-.25.36-.17.57s.18.35.37.35,0-.3,0-.46,0-.43-.2-.46ZM13,26.26c.14-.07.4.2.43.31s.2.44.14.54-.29.22-.56-.12-.33-.54,0-.73Zm-.63-1.54c0-.29.2-.36.32-.36s.21,0,.22.33a.92.92,0,0,1-.28.7C12.49,25.39,12.29,25,12.33,24.72Zm.27-2c.14-.08.38.42.28.67s-.57-.17-.58-.33.2-.29.3-.34Zm.28-.51c-.16.36-.25-.16-.26-.24s-.09-.67.07-.74S13.19,21.52,12.88,22.21Zm-.23-1.57c-.13-.09,0-.51.16-.61s.26.12.26.22S12.87,20.78,12.65,20.64Zm.63-1.75c0,.23,0,.53-.35.68-.18.08-.18-.13-.2-.41s0-.57.17-.6.44,0,.38.33Zm.64,3.31c.26-.17.41.45.26.7a9.8,9.8,0,0,0-.68.88c-.12.27-.3-.44-.18-.69a2.41,2.41,0,0,1,.6-.89Zm-.05-4.75c.07-.19-.18-.54-.31-.44a.7.7,0,0,0-.1.91c.23.11.33-.29.41-.47Zm.1,3.76c-.24.21-.34.71-.46.53a1.14,1.14,0,0,1-.06-.81c.11-.5.39-.77.61-.68a1.23,1.23,0,0,1-.09,1Zm.25-2.9c-.18,0-.28.1-.63.57s.21.83.15.64.58-.42.81-.7-.12-.56-.33-.51ZM18.48,15c.11,0,0,.53,0,.58s.19-.27.19-.27.21-.37.31-.38.11.13,0,.31-.41.5-.39.72.17.6,0,.73-.45.14-.78-.07-.32-.7-.44-.92-.16-.22-.4-.25-.16-.51-.13-.68.25-.24.25-.24c.24,0,.33.18.35.39s.19-.05.32-.22.1.69.24.69.25-.43.49-.39Zm8.23,2.21c-.3,0-.27-.24-.38-.55s0-.57.14-.59.21.38.34.55.2.59-.1.59Zm.56,1.67c-.39,0-.32-.19-.46-.43s-.38-.25-.46-.55a.39.39,0,0,1,.1-.36c.17-.15.37,0,.54.11s.6.41.65.6.07.62-.37.63Zm-.63,4.34c.09-.1.22-.11.12-.31s-.68-.3-.84-.73c-.06-.18.11-.44.44-.44a.78.78,0,0,1,.57.33.69.69,0,0,1,.14.87c-.2.38-.51.38-.43.28Zm-.07,1.88A1.39,1.39,0,0,0,26,24.3c-.23-.2-.28-.11-.34-.24s.25-.74.47-.73a.34.34,0,0,1,.21.16.87.87,0,0,1,0,.48c0,.11.19.1.39.29a.7.7,0,0,1,.13.64c0,.15-.28.46-.34.17Zm-.34,1.19c0-.2-.3.1-.51-.16a.33.33,0,0,1,.07-.46l.09-.05c.3-.11.78.31.89.46s-.06.47-.18.54-.36,0-.36-.33Zm-.45,2.36c-.28.06-.14,0-.14,0a.52.52,0,0,0,.21-.48,1.23,1.23,0,0,0-.23-.61c-.11-.22-.09-.44.09-.51.37-.14.54.41.54.59s0,.91-.47,1Zm-7.49,9.24c-.24.24-.23-.92-.22-1.1,0-.78-.24-2.78-.25-3.15a6.08,6.08,0,0,1-.05-2c.14-.26,0-1.07.74-1.09.23,0,.53.57.74.62s-.19.81-.22,1a2.66,2.66,0,0,0-.11.39,2.67,2.67,0,0,0,.15.68c.1.4.07,3.82-.78,4.66Zm.44,4A13.46,13.46,0,0,1,18.88,44a8.58,8.58,0,0,1-.49-2.62c0-.47,0-1.55.25-1.7v.9c0,.42.08,1.24.09,1.35Zm-4.45-14c0,.12-.2,0-.19.28s.25.7.41.62.05-.48.11-.62.23-.3.14-.48-.12-.28-.2-.31c-.29-.11-.25.39-.27.51Zm.36-10.68c0,.26-.65-.43-.36-.73s.4-.64.61-.8.41.13.44.52-.67.74-.69,1Zm2,.15h0a.67.67,0,0,0-.17-.66c-.16,0-.23.32-.5.43s-.7.29-.8.63-.13.67.15.52c.7-.38,1.08-.18,1.32-.92Zm.5,2.57c.28-.1.75.13.66.46s-.57.55-.65.79a.71.71,0,0,0,.09.69c.17.16-.32.08-.55-.16a1.23,1.23,0,0,1-.24-.94,1.32,1.32,0,0,1,.69-.84Zm.51-1.1a.86.86,0,0,0-.26.59c-.07.15-.49.17-.58-.19a2.43,2.43,0,0,1,1.12-1.89c.18-.09.77-.09.81.15.11.54-.79,1.06-1.09,1.34Zm1.49-.89a2.33,2.33,0,0,0-.44.72c-.07.17,0,.31-.11.39a1,1,0,0,0-.36.82c.09.48.89.61.77.47a.65.65,0,0,1,0-.75c.22-.34.68-.29,1.14-.68s.51-1.27.26-1.33a1.77,1.77,0,0,0-.65,0,1.14,1.14,0,0,0-.57.37Zm.22-2.83c-.22,0-.3.45-.29.86a.72.72,0,0,0,.41.75,1.2,1.2,0,0,0,.58.21c.19,0,.27-.12.42-.22s.33,0,.33-.2-.14-.05-.42-.23a.49.49,0,0,1-.09-.42c0-.15.45-.72.35-.73s-.67.67-.71.57.05-.53-.12-.48-.26.5-.3.44-.08-.56-.16-.55Zm6.12,4.06c0,.17-.35.6-.64.5s0-.19-.12-.54-.48-.3-.69-.4a1.56,1.56,0,0,1-.86-.8c-.17-.49.33-.43.33-.43.46,0,.47.25.5.29a1.38,1.38,0,0,0,.68.56c.5.21.8.57.8.82Zm.58.33c-.41.08-.23-.21-.13-.29a.39.39,0,0,0,.05-.55.25.25,0,0,0-.1-.08c-.33-.2-.49-.4-.25-.57s.47-.14.9.35-.05,1.07-.47,1.14Zm-1.22,2.24a.8.8,0,0,0,1-.43c.13-.4,0-.51-.33-.87s-.56-.46-.67-.61a1.48,1.48,0,0,0-.66-.5c-.22,0-.05.55-.13.67s-.18.35.06.46c.39.18.91.56.92.74s-.3.5-.17.54Zm-.9-1.07c.37.26.33.48.69,1.08s.76.42.86.67a.78.78,0,0,1,0,.58.6.6,0,0,1-.58.48c-.15,0-.14-.42-.16-.7s-.66-.33-.77-.47-.26-1.8,0-1.64Zm.79,4.88a1.45,1.45,0,0,0,.81-.71c.08-.24.09-.79-.3-.85s-.35-.3-.6-.34,0-.29-.06-.44a6,6,0,0,0-.5-.51c-.05-.06-.28-.38-.43-.28s-.1.11,0,.33a1.58,1.58,0,0,0,.37.62c.14.1,0,0-.11.13s-.16.41,0,.47a3,3,0,0,1,.8.74.56.56,0,0,1-.05.63c-.13.14,0,.22.06.21Zm.35,2.77c0-.13,0-.22.14-.22s.27.38.28.44-.11.22-.27.14a.31.31,0,0,1-.15-.36ZM22.49,24c.24.13.63-.13.92-.4s0-.79-.49-.92-.4-.42-.66-.71a.8.8,0,0,0-.62-.38c-.38-.08-.31-.4-.42-.37a.5.5,0,0,0-.38.59,1,1,0,0,0,.46.74,1.5,1.5,0,0,0,.87.21c.32,0,.47.44.45.66s-.43.43-.13.58Zm-1.58-4.6c.14-.08,0-.51.17-.52s.89.68,1.1.87.29.89.74,1c.63.16.64.48.59.66a1.57,1.57,0,0,1-.63.77.32.32,0,0,1-.46-.18c-.05-.17.1-.35,0-.61s-1.22-.86-1.54-1a.85.85,0,0,1-.39-.81c.08-.12.29-.13.42-.22Zm0-3.24c-.06,0-.11-.09-.11-.19s.05-.19.11-.19.11.09.11.19S21,16.12,20.91,16.12ZM23,19.7c.08.56-.4.5-.17.69a.44.44,0,0,0,.65-.24,1,1,0,0,0-.37-1.25,3.72,3.72,0,0,1-.7-.92.64.64,0,0,0-.72-.46c-1,0-.31.25-.28.55a1.53,1.53,0,0,0,.72,1c.28.18.82.17.87.59Zm-1.84-4.6a.91.91,0,0,1,.72.23c.12.16.27.41.27.41s.07-.68.22-.68.41.72.39,1,0,.49-.35.61a1.38,1.38,0,0,1-1.32,0c-.26-.15.19-.27.4-.69s-.78-.85-.33-.9Zm-2.85,7.15h0a.58.58,0,0,0,.8.32c.1-.08-.23-.43-.17-.64a2,2,0,0,1,.78-.86c.23-.07.34-.07.47-.2a.72.72,0,0,0,.29-.67.52.52,0,0,0-.74-.52.8.8,0,0,0-.4.35c-.11.22,0,.52-.3.73s-.56.19-.74.45a1,1,0,0,0,0,1Zm-1.63,5.43c.08-.35.52-.41.69-.75s-.16-.57.21-.6c.18,0,.23-.11.3-.13s.27.22.15.37,0,.4-.05.53-.76.3-.77.53-.22.28-.13.57.13.51,0,.42a1.07,1.07,0,0,1-.39-.94Zm.06-2.05c-.26.25,0,.86.07.75s1.18-.5,1.21-.86,0-.91-.29-1.09-.27.5-1,1.2Zm-.24-2.2c-.32.25-.15.7.13,1s.57.18.51,0-.21-.42,0-.59.8-.42.89-.83-.29-1.13-.43-1-.3.48-.65.63-.2.61-.4.77Zm-1.14-3.09c-.1.09-.32.12-.25.61,0,.17-.73-.11-.3-1a1.82,1.82,0,0,1,1.06-1c.24,0,.44.39.51.61s-.79.62-1,.83Zm-.06,3c.15.18-.58.32-.6-.61,0-.23.23-.71.44-.77.38-.09.51-.58.61-.55a.59.59,0,0,1,.32.58c-.35.74-.71.67-.77.85a.62.62,0,0,0,0,.5Zm.23,2.42c-.26-.07-.51.06-.51-.21a2.75,2.75,0,0,1,.16-1.2c.2-.48.4-.45.4-.45s.46,0,.23.75c-.08.29-.54.51-.45.77s.49,0,.58.22a1.59,1.59,0,0,1-.11,1c-.25.41-.64.66-.65.35s-.25-.48,0-.64.7-.51.35-.62Zm.12,3.28c.35,0,0-.23,0-.45.08-.61.37-.71.47-1.07a.18.18,0,0,0-.32-.1c-.06.06,0,.2-.11.31s-.32,0-.41.35.14,1,.36,1Zm2,.61a1.17,1.17,0,0,1,.6-1c.22-.1.21-.94,0-.94a2.75,2.75,0,0,0-.64.48c-.09.12,0,.21-.05.3s-.58.6-.56.8c0,.46.21.77.64.77s0-.15,0-.39Zm5.52-4.22a.69.69,0,0,1-.43.24c-.3.06,0-.28,0-.45s-.4-.64-.87-.83c-.23-.09-.4.07-.85-.39-.18-.19-.13-.57-.42-.74s.1-.32-.42-.67h0a1,1,0,0,0,0,.25c.07.53-.22.59-.4.77a1.1,1.1,0,0,0-.5,1c0,.35-.27.51-.59.15s.05-1.08.07-1.3.15-.32.44-.45.36-.43.24-.6-.15-.16-.08-.27a1,1,0,0,1,.89-.15c.14-.12.4-.27.44-.16s0,.43.07.67a1.17,1.17,0,0,0,.5.67c.23.17.56.11.87.41s.07.45.2.57a1.6,1.6,0,0,0,.82.43c.31.11.22.68.05.89Zm-1.28,6.17c0-.41.95-.65,1-.56s.09.84.1,1c0,.81.33.83.35,1A20.9,20.9,0,0,1,22.84,37c-.27.31-.23-.25-.45-1A11.63,11.63,0,0,1,22,33.32c0-.74-.18-1.28-.13-1.7ZM20.3,30.55c.25-.09.05-.36.18-.53a.3.3,0,0,1,.33-.09c.17.08.25.18.17.46s-.21.77-.54.83-.29-.61-.14-.67Zm-.16-1.78c-.21.19-1.13.15-1.14,1s.35.72.49.63.1-.25.12-.54.73-.59.81-.92.37-.4.2-.93c0-.1-.31.58-.48.73Zm.31-3.5c.06-.39-.11-.67-.31-.68a.54.54,0,0,0-.42.45c0,.21,0,.37-.35.46a.81.81,0,0,0-.6.93c.07.45.31.55.44.44s.08-.49.23-.57,1-.66,1-1Zm2,4.73c.1,0,.16.28.1.43-.14.38-.46.35-.49.28s.15,0,.14-.27c0-.42.13-.47.25-.43Zm.67-3.31c.2.19.13.65,0,.69s-.31-.21-.31-.34-.19-.27-.21-.37c-.06-.26.33-.16.51,0Zm-.25,1.57a.76.76,0,0,1,.3.67c0,.27-.05.3-.57.58-.08,0-.34.07-.25-.17a2.24,2.24,0,0,0,0-1c-.09-.33.45-.13.55,0Zm-2.11-2.08c.07,0,.11,0,.13.11h0s1.15.76,1.31.91.08.87-.07.93-.74-.35-.73-.56.15-.21.15-.36-.66-.42-.58-.59-.08-.09-.08-.09h0a1.26,1.26,0,0,1-.05.33c-.05.09-.14.09-.46.15s-.59.75-.62,1.06.15.65-.15.54-.62-.56-.59-.79.47-.23.61-.5-.05-.72.26-.75a1.68,1.68,0,0,0,.87-.39Zm.08-1.25c.18.1,0,.4.09.55s.88,1,1.27.73a.68.68,0,0,0,0-.69c-.19-.22-1.15-.74-1.52-1.06-.09-.08-.15.28.18.47Zm.75,6.55c.47-.43,0-.47-.05-.51s-.29.57-.28.6.2,0,.33-.09Zm-.5-2.14c0,.14.37.84.81.76.26-.05.28-.32.18-.38s-.37-.17-.37-.22.43,0,.3-.39a1.16,1.16,0,0,0-.53-.52c-.11-.08-.45-.29-.53-.22s.16.48.14,1ZM23.77,28a2.26,2.26,0,0,1,0-1.12c.07-.19-.25-.29-.32-.49s.21-.18.48,0a.69.69,0,0,1,.33.51c0,.28,0,.48,0,.52a1.53,1.53,0,0,1,.47,1.08c-.09.3-.23.47-.44.24a4.52,4.52,0,0,1-.53-.71Zm-.2.61c-.12.3.27.47.36.48s0-.28-.05-.37-.24-.29-.31-.11Zm.11,1c0-.12.3,0,.35.05a.21.21,0,0,1,0,.3.39.39,0,0,1-.1.08c-.17.06-.31-.25-.3-.43Zm0-4a2,2,0,0,1,0-1.24c.25-.22.57,1.05,1,1.38s.53.54.43.75c-.18.38-.47.55-.33,0s-.93-.76-1.07-.89Zm2.09-5.26c.3.56.75.15.7.82s.26.05.28-.14a1.5,1.5,0,0,0,.08-.88.62.62,0,0,0-.54-.35c-.52-.06-.63.34-.52.55Zm-.95-3.11c.19.37-.35.48.07.52a.57.57,0,0,0,.63-.44.45.45,0,0,0-.25-.59.42.42,0,0,0-.19,0c-.35,0-.37.33-.26.54Zm-.93-2h0c-.11.15-.28-.51-.44-.45s.14.72,0,.75-.6-.68-.65-.42.2.44.24.69a.8.8,0,0,1-.13.67c-.13.12-.19.2.1.23a1.58,1.58,0,0,0,1.16-.49c.13-.12.31-.49,0-1.09-.13-.3.36.34.19-.35-.07-.3-.27-.55-.37-.55s0,.78-.14,1Zm.63-4.7c.05-.17.23-.2.29-.28s0-.44.18-.56.19-.13.26.08-.05.48.1.7a.7.7,0,0,1,0,.63c-.06.28-.35.33-.68.4a.89.89,0,0,0-.61.61c-.16.41-.39.06-.39-.08s-.14-.52,0-.61a2.13,2.13,0,0,0,.76-.53c.18-.18.05-.14.11-.36Zm-4.91,1.5a1.65,1.65,0,0,0,1,.57,1.84,1.84,0,0,0,1.28-.17c.43-.32.92-1.47,1.25-1.55s.34,1.64.31,1.9a1.53,1.53,0,0,1-1,.86c-.24,0-.7,0-.58-.13s.39-.16.43-.32-.21,0-.42,0-.47-.15-.42,0,.19.3.07.38-.93.18-1.06,0,.22-.42.12-.52-.18.16-.42.24-.72,0-.64.12.29.11.44.13.26.12-.09.16a1.48,1.48,0,0,1-1.12-.18,1.24,1.24,0,0,1-.37-1.08c.09-.43.14-1.4.32-1.4s.67.76.94,1ZM21,11.89a.39.39,0,0,0,.45,0c.2-.1.16-.18.49-.52s.47-.22.43,0-.41.84-.85.86c-.14,0-.45,0-.48.09s-.41.22-.74-.07-.71-.77-.64-1.09.47-.48.79-.49.26-.28.33-.21a1.18,1.18,0,0,0,1,.41c.42,0,.07.72-.44.76s-.42.18-.32.26ZM13.73,25.45a3.87,3.87,0,0,0,.84-1.1c.13-.25-.29-.32-.4-.27a1.33,1.33,0,0,0-.62.7c-.09.25-.06.8.18.67Zm.74.26c.13-.07.41.43.26.6s.09.09-.18.48-.58.24-.69-.09.42-.89.61-1ZM13.14,46h0a.83.83,0,0,0-.83.54c-.1.28-.25.6,0,.58A2.5,2.5,0,0,0,13,47c.13-.1,0-.33.12-.49s.41-.3.42-.42-.07-.18-.37-.16Zm0-.76h0c0-.15.11-.35-.11-.29s-.17.41-.07.5S13.1,45.34,13.14,45.2Zm1.08-1.69h0c.12-.26.17-.63-.09-.58s-.53.66-.54.91,0,.45-.38.49a.89.89,0,0,0-.79.58.87.87,0,0,0,.21.79c.16,0-.08-.79.13-1s.55-.1.62.19-.17.71-.05.77.26-.28.24-.78c0-.18,0-.34,0-.4s.49-.7.63-1Zm.27,1.83c-.07,0-.21-.11-.17-.23s0-.24.08-.23a.16.16,0,0,1,.17.14c0,.12,0,.3-.08.32Zm-.25-.73c.08-.11.28-.06.35,0,.37.3.22.61.28.59s.27-.29-.09-.63a.87.87,0,0,0-.39-.26.59.59,0,0,0-.47.19,1.49,1.49,0,0,0-.15,1.11c.13.14.41.22.54.08s0-.27-.11-.4a.62.62,0,0,1,0-.68Zm.08,2.22a.79.79,0,0,1,.25-.58c.14-.14.29-.23.29-.32s-.31,0-.51,0a.64.64,0,0,0-.56.34,1.65,1.65,0,0,0-.28.6c0,.23.1.27.38.27s.49,0,.43-.28Zm1.26-2.95h0c-.08-.32.66-1.33.82-1.59s0-2.15.16-1.88.22,1.52.31,1.7.32-.19.41-.27-.18-1.44,0-1.42.13.18.17.31a1.42,1.42,0,0,1,.12.4c0,.26.21.88.29.87.25,0,.38-.74.26-1.17a4.15,4.15,0,0,1-.18-.85,3.26,3.26,0,0,0-.32-1.17c0-.11.1-.12.22-.05s.17.72.32.61a1.25,1.25,0,0,0-.24-1.13,5.81,5.81,0,0,1-.5-1.59c0-.16,0-.35-.06-.55a12.22,12.22,0,0,1,0-2.42,1.67,1.67,0,0,1,.16-.59,4.32,4.32,0,0,0,0-1.78c-.05-.28-.66-.82-.93-1.07A1.84,1.84,0,0,0,15,30a1.76,1.76,0,0,0-.32,1.71,3.42,3.42,0,0,1,.2,1,14.89,14.89,0,0,0,.47,3.09c.14.16,0,2.9.07,3s-.06,1.51-.05,2.13a2.4,2.4,0,0,0,.05.46c.07.27.06.87-.1.88s0-.45-.28-.44c-.1,0-.35.73-.17.85s.33.06.65-.31a1.1,1.1,0,0,0,.24-.42c.1-.36.07-1.08.2-1.18s-.12,1.75-.32,2.09-.41.34-.56.22-.27,0-.32.05-.05.42-.13.65.31.14.53.14.2.11.15.27-.21.36-.18.49c.11.39-.05.52-.1.52-.2,0-.34.29-.29.45s.71.25.58-.13c0-.15.06-.26.13-.51s.06-.41.09-.58a1.82,1.82,0,0,0,.08-.52Zm2.11.62c.09,0,.22-.14.25-.23s.26-.07.42-.08.19-.1.18-.28-.19-.22-.35-.14-.18.27-.28.34-.16-.09-.16-.19.09-.16.16-.29c.16-.32-.1-.16-.23-.16s-.14-.12-.1-.19a3.5,3.5,0,0,0,0-1c-.05-.09-.09-.34-.22-.31s-.24.46-.36.48.08.57-.06.58-.31-.17-.43-.16c-.38,0-.43.45-.49.65-.14.46,0,1.09-.14,1.13s-.25.32-.25.6c0,.61.38.52.47.33a.74.74,0,0,0-.12-.54c-.05-.08,0-.26.12-.3a.52.52,0,0,1,.42-.06c.12.07.25.22.24.31s-.2.72,0,.67a.82.82,0,0,0,.33-.57.65.65,0,0,0-.21-.54,1.15,1.15,0,0,0-.45-.11c-.12,0-.1-.11-.08-.18s.13-.13.29-.27.27-.57.32-.56a.82.82,0,0,1,.25.4,5.55,5.55,0,0,1,.13.71c.06.15.3.35.18.65s-.14.53.05.47.14-.81.15-1-.08-.22,0-.21Zm-.15,1.33c.12,0,.46.13.17.32a1.71,1.71,0,0,0-.55.64c-.05.08-.29.08-.29-.17,0-.41.56-.79.67-.79Zm-1.23-.94c.2,0,.21.22.2.35s0,.26-.12.27-.15-.14-.15-.27,0-.37.07-.35Zm.15,1h0c-.15,0-.77.88-.54.92a.9.9,0,0,0,.54,0c.07-.08,0-.35.07-.45a2.07,2.07,0,0,1,.5-.43c.11-.08-.37,0-.57,0Zm2-.64a.14.14,0,0,1-.19.06.13.13,0,0,1-.07-.06c0-.1-.11-.28.11-.3s.19.18.15.3Zm.21-.36c-.05-.12-.45-.36-.6,0a.72.72,0,0,0,0,.48c0,.11.27.24.31.43s-.37,0-.45-.13,0-.23-.05-.35a1.11,1.11,0,0,1,0-.74.41.41,0,0,1,.4-.22.59.59,0,0,1,.45.25.75.75,0,0,1,.07.53c0,.09.08.27.08.38s-.17.14-.2.15-.19,0-.14-.19.06-.22.09-.31a.55.55,0,0,0,0-.31Zm3.37-.56a1.31,1.31,0,0,1-.28-1.11c.21-.4.38-.93.5-1.16a2.6,2.6,0,0,0,.12-1,5.14,5.14,0,0,1,.06-.55,1.76,1.76,0,0,0,0-1,16.41,16.41,0,0,1-.68-3.13,38.09,38.09,0,0,0-.07-3.86c-.08-.14-.32.13-.4.11s-.24-.26-.46-.3a.71.71,0,0,0-.64.15c-.18.15-.35-.16-.52-.13s-.07.38-.16.48c-.4.49.26,4.47,0,5a6.14,6.14,0,0,0-.42,3.35,2.4,2.4,0,0,1,.09,1.1,3.1,3.1,0,0,0,0,1.25.71.71,0,0,1,0,.91c-.1.12.2.49.27.6s-.15.68.13.68a12.69,12.69,0,0,0,2.35,0c.26-.12.37-1,.08-1.28Zm4.91,1c0-.12,0-.18.08-.21s.13.2.07.27-.17.07-.15-.06Zm-.29.82a1,1,0,0,1,.54.07,2.62,2.62,0,0,1,.62.77c0,.23-.38.17-.52.16-.33,0,0-.48-.49-.79-.09-.07-.3-.2-.15-.21Zm-2.92,0a.69.69,0,0,1,.52.16c.45.35.3.57.19.45a1.19,1.19,0,0,0-.8-.42c-.1,0-.07-.19.09-.19Zm-.2-1.25s.13.18.09.38,0,.23-.09,0S23.44,44.89,23.55,44.89Zm1.77.47s-.14-.07-.18-.22,0-.31.07-.31a.16.16,0,0,1,.15.19h0c0,.11,0,.31,0,.33Zm-1.88,0h0c0-.08-.22-.44,0-.65s.38,0,.41.27,0,.57.07.55a.39.39,0,0,0,.3-.42.89.89,0,0,0-.18-.63c-.17-.17,0-.29.1-.13.17.33.44.19.41.57s.09.76.17.78c.27,0,.48,0,.42-.24a.69.69,0,0,0-.24-.34.29.29,0,0,1,0-.4.52.52,0,0,1,.52-.08.3.3,0,0,1,.15.3c0,.26-.29.49-.24.66a.21.21,0,0,0,.27.11l.06,0a1.45,1.45,0,0,0,.19-.6,1.07,1.07,0,0,0,0-.4.51.51,0,0,0-.4-.35c-.27,0-.72.11-.61-.05s.24-.25.31-.38a.37.37,0,0,0-.06-.48c-.08-.07-.28-.17-.35-.09a2.11,2.11,0,0,0-.27.59c0,.18-.17.37-.25.23a2.21,2.21,0,0,1-.15-.5c-.21-.59.11-.48.08-.92s.22-.72,0-1c-.12-.17,0-.55-.05-.69s-.18-.32-.14-.45,0-1.14-.18-1.14-.2.8-.26.86-.12,1.19,0,1.24.07.65,0,.62-.08.43,0,.78a4.71,4.71,0,0,1,.23,1c0,.31-.27-.5-.47-.5s-.26.6-.13.6.29.27.08.46a1.57,1.57,0,0,0-.07,1.28c.16.11.38-.08.29-.34Zm1.43,1.12h0c.1.08,0,.34.07.49s.31.16.63.16-.08-.45-.15-.59a1.5,1.5,0,0,0-.49-.48.81.81,0,0,0-.46-.05c-.13,0,.16.29.4.47Zm1.07.12h0A.65.65,0,0,1,26,47c0,.19.18.14.4.14s.34,0,.3-.16a1.44,1.44,0,0,0-.39-.66c-.3-.32-.53-.24-.81-.24-.12,0,.4.44.47.53Zm.17-4.16c-.09.07,0,.44.11.56a.59.59,0,0,0,.41.1c.07,0-.14-.23-.28-.38s-.12-.39-.24-.29Zm-1.14-5a13.3,13.3,0,0,0,.76,2.69c.13.35.08,1.06.16,1.38s-.21.27-.22.54-.11.83.1,1,.72.24.84.67a.68.68,0,0,1-.09.52.86.86,0,0,0,0,.55c.1.18.14-.06.24-.23s.44,0,.54.2a2.55,2.55,0,0,1,.14.77c0,.2-.14.19-.22.14s.12-.57,0-.74a.36.36,0,0,0-.39-.07c-.22.13.26.71,0,.77s-.23.09-.32,0,0-.44-.09-.49-.22-.09-.27.22-.09.1-.08-.24.19-.59,0-.83a1.23,1.23,0,0,1-.35-.52c-.1-.26.1-.47-.36-.54-.15,0-.66-.14-.59-.41a.51.51,0,0,0-.13-.58c-.15-.14.18-.6,0-.92a3.85,3.85,0,0,1-.6-1.95c0-1.13-.11-2.57-.11-2.57a10.62,10.62,0,0,0-.35,1.83,16.25,16.25,0,0,0-.49,3,2.05,2.05,0,0,1,.05.55,4.89,4.89,0,0,1-.3.75,1.8,1.8,0,0,0-.07,1c.07.12-.32.18-.34-.21a2.09,2.09,0,0,1,.21-1c.08-.14.29-.35.32-.5a1.39,1.39,0,0,0-.21-.71,1.52,1.52,0,0,1,0-.92c.2-.94.7-4.17.79-4.44s.09-3.92.07-4.36-.44-1.32-.12-1.36c.77-.1.75-.17.9-.3s.69-.87.91-.87c.4,0,.68.14.66.31-.1.68.56,1.25.19,2.7a23.63,23.63,0,0,1-.59,2.71c-.41,1.29-.69,1.81-.56,2.44Zm2.45-17c-.56-.06-.08,0,0-.31s-.11-.16-.28-.39-.21-.68.26-.7c.3,0,.55.25.68.67a.63.63,0,0,1-.66.73Zm.42,1.64c-.23,0-.15-.19-.2-.32s-.28-.21-.33-.35a.32.32,0,0,1,.12-.36A.52.52,0,0,1,28,21a.56.56,0,0,1,.33.6c0,.19-.25.5-.49.49Zm-.65,2.1a.51.51,0,0,1,.54.22c.25.44.23.84,0,.93s-.3-.1-.27-.44a.87.87,0,0,0-.28-.71Zm.95-.41c-.11-.51-.3,0-.42-.59s-.47-.2-.13-.59c.12-.14.49,0,.66.3a2.08,2.08,0,0,1,0,1.82c-.38.59,0-.42-.13-.94Zm-2.57-9.48c.42-.33.19-1.36,0-1.59s.31,0,.54,0,0-.24-.36-.39c-.13-.06-.16-.2,0-.31s.45.08.88.51c.26.25.11.9-.08,1.25s-.17.62-.55.64-.41.41-.55.64a.61.61,0,0,1-.67.35c-.21,0-.2-.18-.13-.24s.19,0,.23,0,.05-.31,0-.47a6,6,0,0,0-.42-.65.47.47,0,0,1-.06-.55c.18-.14.4.55.58.49s-.34-.75-.12-.93c.05,0,.22.59.26.56s0-1,.15-.86a1.72,1.72,0,0,1,.3.87c.05.41,0,.75,0,.72ZM22.64,6.81c.14-.15.5-.11.51.3s0,.78-.47,1S22,7.92,22,7.92a1.41,1.41,0,0,0,.6-.26c.24-.21-.1-.64.09-.85Zm-4.35.78c-.26-.21-.63.16-.5.43a1.42,1.42,0,0,0,.94.76,1.53,1.53,0,0,0,.87-.11,1.74,1.74,0,0,1-.92-.4c-.4-.36-.11-.47-.39-.68Zm.16,2.51c.2,0,.36,0,.12.15s-.72,0-.76.3.47.32.76.16c.61-.34.85-.22,1.14-.45a4.19,4.19,0,0,0,.83-.74c.2-.3.1-.41.24-.41s.2.34.39.55a2.2,2.2,0,0,0,1.6.77,2,2,0,0,0,2.14-1.1c.08-.19.39-.2.32.08s.1.29.22.14a.7.7,0,0,0,0-.6c-.09-.15-.22-.39-.39-.27-.47.3-.3.74-.94,1a3.21,3.21,0,0,1-1.6.08A2.15,2.15,0,0,1,21.16,9c-.12-.14-.24-.43,0-.27a2.94,2.94,0,0,0,1,.62,2.47,2.47,0,0,0,1.14.15,1.17,1.17,0,0,0,1.07-.6c.22-.36.23-.73-.05-.63s-.36.47-.84.71c-.28.13-.48.26-1.44-.06-.49-.16-.83-.66-.38-.38a2.08,2.08,0,0,0,1.57.3A1.28,1.28,0,0,0,24,8.11c.31-.85-.37-1.26-.42-.93s.07.34,0,.6-.16.19-.39.39a.9.9,0,0,1-.88.23c-.33-.08-.27-.29-.56-.26s-.39.28-.67.32a2.28,2.28,0,0,1-.84-.26c-.48-.29-.71,0-.92-.33s-.07-.55-.09-1-.13-.36-.26-.35a.37.37,0,0,0-.25.48l0,.06c.21.57.08.82.4,1s.41,0,1,.28a.28.28,0,0,1,.13.3c-.05.18-.35.3-.66.38A2.24,2.24,0,0,1,18.15,9c-.3-.12-.47-.71-.67-.7s-.21.23-.07.41c.28.36.4.58.9.67A3.26,3.26,0,0,0,20.23,9c.3-.29.44-.31.4-.09s-.18.3-.5.44a3,3,0,0,1-1.46.38,4.09,4.09,0,0,1-1-.15c-.3,0-.35.13-.24.19a2.13,2.13,0,0,0,1,.31Zm-1.08,3.36a.75.75,0,0,1-.1.65c-.22.26-.73.21-.8.53s0,.32-.13.51a.46.46,0,0,1-.35.16c-.21,0-.33-.13-.42-.42s-.12-.85-.4-1a4,4,0,0,1-.93-1.19c-.05-.17.06-.2.1-.17a6.11,6.11,0,0,1,.85.67c.24.22.23-.86.73-.69.31.1.17.64.27,1,.22.86.14-.27.41-.33s.25.43.21.65.44-.51.56-.37Zm-1.65-2.53c0,.19-.2.3-.2.3a4.34,4.34,0,0,0,0-.51c0-.25-.13-.72-.32-.73s-.07.22-.45.42-.74-.07-.81.22a1.19,1.19,0,0,0,0,.79c.11.25.46.41.62.57.31.31,0,.47.54.49s.78-.35.78-.92a2,2,0,0,1,.11-.64c.13-.38.06-.59-.13-.61s-.21.29-.17.62Zm-5.49-.51c.11-.11.16.45.4.48a.78.78,0,0,1,.59.27c.11.17.11.34.34.46s.64.36.71.64-.27.59-.47.79-.11-.35-.5-.58-1.08-.27-1.25-.64a1.29,1.29,0,0,1,.18-1.42ZM7.8,15.54h0c.48.42.6.6.54.92a1.22,1.22,0,0,1-.46.77c-.13.1.46.3.86.11A1.07,1.07,0,0,0,9.12,16c-.22-.45-.64-.42-.77-.5s.44-.07.71-.49a1.14,1.14,0,0,0,0-1c-.05-.09,0-.2,0-.24-.09-.19-.28-.19-.61-.49s-.15-.68-.36-.8-.26,0-.52-.07-.38-.61-.66-.45.22.53.29.73a.66.66,0,0,0,.25.45,2.17,2.17,0,0,1,.58.51c.39.71.51.51.6.71a.42.42,0,0,1,0,.33s-.1,0-.11,0,0,.3-.07.34,0,.15-.15.1.09-.43-.11-.52-.52-.54-.74-.67-.42.12-.42.37.12.71.74,1.24Zm3.3.26c.17.3-.29.52-.14.61a.77.77,0,0,0,.94-.34A.84.84,0,0,0,11.46,15c-.34-.18-.75-.23-1.2-.44a1.3,1.3,0,0,1-.55-1c0-.21,0-.51,0-.55.26.08.1.71.41.82s.72.05.92.13a.67.67,0,0,1,.41.56c0,.23.12.64.46.44s.41-.3.45-.54c.08-.54-.17-.94-.37-1s-.34.07-.63-.07-.31-.28-.34-.37c-.09-.27-.24.08-.56-.22s-.34-.66-.76-.59c-.23,0-.29.62-.15.77a.11.11,0,0,1-.05-.09s-.41.26-.41.51.31.32.35.74-.1.54.06.82c.42.73,1.43.63,1.6.92Zm.5,11a.22.22,0,0,0,.4.16,1.17,1.17,0,0,0-.15-1.07c-.2-.24-.27-.25-.36-.21s0,.42.1.49.06.43,0,.63Zm0-4.05h0c-.31,0-.31.45-.1.47.06,0,0,.24.23.14s.05-.23.08-.37a.21.21,0,0,0-.17-.24Zm-1.48,2.37c.18.11.49.16.61.29s.08.54.13.72.15,0,.36-.27,0-.71.16-.76.18.14.23.14c.32,0,.41-.16.4-.37,0-.4-.3-.7-.47-.56s-.28.5-.52.54-.28-.1-.53-.13a.49.49,0,0,0-.37.08c-.17.09-.05.28,0,.32Zm.61-1.75a.33.33,0,0,1,0,.47l0,0c-.14.11-.08.29-.33.24s-.35-.39-.58-.35-.21.16,0,.37a1.26,1.26,0,0,0,1,.15.75.75,0,0,0,.51-.73c0-.22-.28-.27-.39-.62s-.18-.59-.36-.52a.41.41,0,0,0-.21.48,2,2,0,0,0,.4.48Zm-.22,6.27c.34-.36-.2-1-.27-.66-.15.71-.63.73-.39.77a.7.7,0,0,0,.66-.11Zm.11-1.88h0a.84.84,0,0,0-.25-1c-.19-.13-.39-.61-.85-.64-.24,0-.38.19,0,.46.15.1.18.31.28.43s.4.27.41.49-.09.6-.43.62-.42-.57-.67-.54-.2.5,0,.65.35.74.17.87.07.26.27.16c.66-.33.23-.51.33-.68s.53-.29.73-.78Zm1.06.81c.1-.11,0-.26.09-.38s.3-.38.18-.5-.3-.54-.68-.4.08.69-.12,1-.54.59-.08.55a1,1,0,0,0,.61-.31Zm.55-8.61h0c.23-.22-.08-.84.05-.95s.11-.35.33-.5a.43.43,0,0,0,.13-.6h0c-.06-.14-.21-.23-.46-.57s.05-.77-.1-.79-.36.32-.43.53.08.64,0,1.19.44.4.29.67-.12.19-.3.17-.12-.61-.23-.59-.59-.08-.5.44.64.94.76,1.25-.17.25-.43.24-.76.12-.49.47.54.6.51.86-.35.45-.37.54.38.43.54.3.08-.67.17-.72c.24-.13.26-.7.21-1a1.11,1.11,0,0,1,.3-.93Zm1.63,20.86h0a1.49,1.49,0,0,1-.23.89,2.92,2.92,0,0,1-.19.49c-.16.27-.29.43-.27.53s.23.06.37-.08.52.16.77-.09c.07-.07.1-.28.21-.47s.34-.4.35-.46c.1-.39.16-.74.07-.86a3.41,3.41,0,0,1-.36-1.81,3.32,3.32,0,0,1,0-.89c0-.13.2-1.17-.07-1.26s-.11,1.89-.2,2.12-.14.55-.22.78a2.82,2.82,0,0,0-.22,1.11Zm-3.7,5.52a1.3,1.3,0,0,0-.34.74c0,.2.6.14.6,0a1,1,0,0,1,.36-.75c.16-.14.24-.33,0-.32a.69.69,0,0,0-.61.28Zm-1.41-.06a1.56,1.56,0,0,0-.28.75c0,.19-.28.17-.43.19s-.1-.35,0-.58.17-.39.35-.42.5-.05.38.06Zm.17.2h0c-.22.25-.22.74,0,.74h.35c.23,0,.12-.2.11-.38a.46.46,0,0,1,.35-.45c.23,0,.29-.2.11-.22a1.08,1.08,0,0,0-.9.32Zm5,1.88h.3v.17a3.29,3.29,0,0,0,.41-.33c.19-.22.32-.52,0-.74s-5.61,0-5.57.3l0,.13h.28V48H9.06a4.4,4.4,0,0,0,.59,1.8c.28.33.27,1.12.53,1.41v-.07h.3v.16h.09a.8.8,0,0,1,.21,0v-.1h.3v.1h.14v-.11h.3v.17c.62.13,1.27.39,1.52.38.4,0,.34-.43.26-.73a.78.78,0,0,0-.05-.14H13v-.2h.19a.74.74,0,0,1-.1-.46h-.2V50h.29l0,0a1,1,0,0,0,.33-.68h-.2v-.2h.2c0-.13.32-.35.6-.55h-.25v-.21ZM21,57.85a5.79,5.79,0,1,0-5.86-5.71A5.79,5.79,0,0,0,21,57.85Zm0,1c.11.14.51.12.68,0s0-.66-.07-.64-.44.06-.62.09-.07.42,0,.52Zm-.35.31c-.11,0-.2.4-.22.47a3,3,0,0,0,.81,0c.1,0,.22-.46.21-.47s-.76,0-.8,0Zm0-.27c0,.14-.7.09-.82,0s-.33-.65-.18-.63a5.53,5.53,0,0,0,.9.11c.13,0,.07.38.1.52Zm-1.05.31a2.48,2.48,0,0,1,.86,0s-.14.46-.34.47-.76,0-.76-.05a.48.48,0,0,1,.24-.42ZM19,59h0c.15,0,.62.07.57-.08l-.15-.43c0-.07.28-.26.09-.25a2.78,2.78,0,0,1-.63-.11.71.71,0,0,0-.16.31c0,.13.13.52.28.56Zm-.52.48h0c-.15.26.18.18.41.18a.41.41,0,0,0,.44-.37c0-.13-.32-.07-.56-.07s-.23.16-.29.26Zm-.54-1a2.84,2.84,0,0,1,.49-.49,2.26,2.26,0,0,0,.33.13s-.38.22-.16.54-.26.3-.42.3-.28-.36-.24-.48ZM14.51,55h.31v.25h-.13a1.34,1.34,0,0,1,.12.3c0,.14.39.57.64,1l.07.13v-.13h.31v.24h-.27c.11.29,0,.42.11.48a4.86,4.86,0,0,0,1.08,0s.2-.06,0-.19A20.14,20.14,0,0,1,15.32,55v.14H15v-.25h.25a1.63,1.63,0,0,1-.11-.17,3.2,3.2,0,0,1-.48-1.53v.09h-.31V53h.29c0-.13,0-.22-.1-.25a5.4,5.4,0,0,0-1.34.07c-.19,0-.07.79.2,1.36h.21v.25h-.08c.14.22.3.37.46.37a.7.7,0,0,1,.52.19Zm-1.3,2.43A5.71,5.71,0,0,1,13.6,57a1.12,1.12,0,0,0-.1-.65c-.08-.11-.36-.6-.52-.64a4.55,4.55,0,0,1-.48-.21c-.26-.07,0-.13,0-.13a.72.72,0,0,1,.32.08,2.94,2.94,0,0,1,.71.4,4.08,4.08,0,0,1,.55.76c.11.3-.14.46-.16.68s-.07.26-.24.28-.54,0-.48-.1Zm-6.29-.77h.26v.24H7.05l.06.1c.2.38.65.3.76.35s4.76,0,4.9,0,.56-.09.41-.79c-.11-.54-.77-.58-1.21-.78v.1h-.31v-.25h.07l-.08-.08c-.32-.45-1.77,0-2.17-.35h0v.09H9.17v-.24h.1c-.44-.28-1.07-.56-1.21-.32a2.06,2.06,0,0,1-1.47.84s0,0,0,0v0c0,.13-.17.76,0,.77a.31.31,0,0,1,.13.06v-.14H7v.25h-.2l.1.15Zm7.5,2h0c.14-.09-.28-.36-.18-.5s.57-.31.57-.35-.15-.14-.37-.14a2,2,0,0,0-.79.34c-.1.09,0,.51.23.68a.52.52,0,0,0,.54,0Zm1-.13c.1.09.06.24-.2.26s-.68-.64-.51-.77A4.22,4.22,0,0,1,16,57.58s.3.18.25.21l-.8.43a.25.25,0,0,0,0,.33l0,0Zm1.19.32a1,1,0,0,1-.58,0c-.27-.1-.43-.52-.32-.59a6.07,6.07,0,0,1,1.52-.65l.27.13c.12.06-.84.39-1,.61s.14.42.08.51Zm1.08-.1c0,.06-.46.17-.57.13s-.34-.48-.2-.57a4.26,4.26,0,0,1,.78-.5c.1,0,.24.07.42.08s-.48.16-.54.32a.78.78,0,0,0,.11.54Zm5.09-.27a.27.27,0,0,1,0,.36c-.11.13.49.06.6,0s.1-.33,0-.41S23,58,22.9,58a1.27,1.27,0,0,1-.39.12c-.1,0,.21.31.27.4Zm.92-.16c.13.12,0,.26,0,.43s.19.18.44.18.29-.18.29-.35-.6-.67-.72-.73-.18.07-.32.09.19.25.33.38Zm3.83.43a.44.44,0,0,0,0-.32c-.11-.17-.33-.44-.19-.45a.36.36,0,0,1,.33.15c.11.11.38.47.35.66s-.08.15-.27.15-.27,0-.22-.19Zm-.32.6c0-.08.23,0,.38,0s.12.09.13.15-.17.16-.33.16a.19.19,0,0,1-.2-.19.29.29,0,0,1,0-.09Zm-1.39,0c0-.11.24-.08.4-.08s.1.14.11.2-.15.17-.31.17-.22-.21-.2-.29Zm-.28-1c.1.12,0,.24,0,.42s.26.18.52.15.28-.41.27-.47a.84.84,0,0,0-.43-.44,1.19,1.19,0,0,0-.53,0c-.14,0,.11.22.21.34Zm1,0c.15.16.08.26,0,.4s.19.13.43.14.18-.12.24-.32-.27-.41-.5-.55-.2-.13-.41-.07.13.24.28.4Zm1.22-6.14a1.5,1.5,0,0,1,0,.3v0h-.23v.2h.22c0,.12,0,.23,0,.35h-.24v.2h.28a2.61,2.61,0,0,0,.42,1h-.1v.21h.25a1,1,0,0,1,.21.52l-.31.75v-.07H28V56h.25l-.17.43h-.23v.2H28a1,1,0,0,0,0,.17c0,.24-.6.05-.63.31s.13.49-.07.48-3.52.07-3.52.07a3.09,3.09,0,0,0,.82-.39v.12h.3v-.2h-.18l.16-.13a14.64,14.64,0,0,0,1.62-1.81h.15v-.2h0a1.09,1.09,0,0,0,.08-.15c.05-.1.1-.23.16-.38v.11h.3v-.21H26.9c.05-.14.1-.3.15-.47h.2v-.21h-.14a10.85,10.85,0,0,0,.35-2.34c0-.09.24.15.32.64h-.21v.21Zm.05-3.71c0,.12,0,.24-.05.37h-.17v.28h.14c0,.44,0,.9-.05.9s-.35.32-.5.32-.17-.68-.41-1.17l0-.05h.08v-.28h-.21l-.16-.32h.13v-.28h-.28c-.07-.13-.15-.26-.22-.37h0v-.28h-.2a1.8,1.8,0,0,0-.19-.2l2,0,.05.17h-.14V48h.21a1.65,1.65,0,0,1,0,.32h-.25v.28ZM29,47c0,.18-.15.17-.32.18s-.41,0-.41-.22-.44-.5-.44-.75c0-.08.21,0,.4,0s.23.15.28.21c.2.27.49.5.49.62Zm.44-1.3c0,.15-.39.21-.49.06s.14-.32.05-.61-.27-.65-.18-.67A1.64,1.64,0,0,1,29.47,45.65Zm0,2.32a.31.31,0,0,1-.28.25c-.18,0-.3-.22-.3-.35a.26.26,0,0,1,.22-.3h.07a.3.3,0,0,1,.31.3.16.16,0,0,1,0,.1Zm.8-1c0,.08.09.4,0,.4h-.39c-.14,0-.08-.42-.4-.66s-.47-.47-.36-.47.29,0,.53,0a1.34,1.34,0,0,1,.63.73Zm.93.4c-.19,0-.54.12-.55-.27s-.39-.51-.39-.72.34-.11.55-.06.63,1,.39,1Zm1.23.14c-.25,0-.51.09-.63-.14s-.31-.57-.4-.68c-.27-.37-.11-.28,0-.28a.53.53,0,0,1,.51.27c.12.13.6.81.47.83Zm1.46,1.62-.05,1.44h-.3v.28h.28v.35h-.27v.28h.26v.27s-1.39.06-1.38-.14a.62.62,0,0,0,0-.13h.18v-.28h-.16V50.8h.16v-.28h-.18c0-.08,0-.17,0-.26h.23V50h-.3v.08c-.17-.29-.45-.27-.73-.42l-.3-.15h.12v-.28H31v.19l-.32-.14s-.06-.26-.11-.51h.22v-.28h-.26a.15.15,0,0,0,0-.07,2.88,2.88,0,0,0-.18-.7,1.64,1.64,0,0,1,1,0h-.24V48h.3v-.26l.34.12h-.11v.28H32V48a8,8,0,0,1,1.12.6h-.21v.28h.3v-.23c.4.25.68.46.68.46Zm.13-2.4c.25.11.42.64.3.76s-.4.17-.38-.23-.17-.33-.32-.42-.2-.24-.06-.26a1.25,1.25,0,0,1,.46.15Zm.41-.78c0,.1-.12.38-.18.4s-.07-.38-.06-.52,0-.26.12-.24.12.25.12.36Zm.25.22a.79.79,0,0,0-.2-.78A1.49,1.49,0,0,0,34,45c-.16-.06-.18,0-.18.06s.1.39.15.32,0-.27.15-.18a.89.89,0,0,1,.41.65c0,.14-.07.59.08.27Zm0,.89c.28.13.16.52.28.53.43,0,.15-.55-.08-.67a.43.43,0,0,0-.25,0c-.12,0,0,.15.05.19Zm-.35,10.35c.12,0,0-.28.07-.34s.15-.66.28-.65,0-.37-.06-.43l-.48-.52a3.13,3.13,0,0,0-.24.6c0,.15.25.29.24.35s0,.48-.28.63,0,.42-.1.44a0,0,0,0,0,0,0,0,0,0,0,0,0,0l.57-.08ZM32.45,45.9c.1,0,.24.09.21.21s-.08.22-.21.13a.21.21,0,0,1-.06-.28A.17.17,0,0,1,32.45,45.9Zm.46.61c.22.09.52.53.44.76s-.25.37-.39.22,0-.51-.26-.6-.41-.13-.46-.38c0-.08.45-.08.67,0Zm-5-4c.11-.06.77-.14.72,0a1.08,1.08,0,0,1-1,.36C27.55,42.84,27.77,42.6,27.9,42.51Zm-.16-2.45c.1,0,.41,1,.5,1.3,0,.1.16.81.17.92s-.55-.29-.5-.51c.17-.8-.37-1.62-.17-1.71ZM27.35,26.4c-.06-.09-.32-.25-.23-.42s.38,0,.52.14.26.69,0,.86-.35.15-.27-.12a.5.5,0,0,0,0-.46Zm1.29,2.83c-.2.05-.43-.19-.45-.38a.35.35,0,0,1,.22-.35c.2-.08.23.31.35.37s0,.34-.13.36Zm0-1.87c-.05.36-.11.89-.29.79s-.38.51-.59.49-.25-.37-.19-.59.65-.75.72-.86-.08-.49-.12-.67.48-.75.58-.75.39.72.25.91a1.32,1.32,0,0,0-.36.68Zm.7,1.12c-.09.28.22.34.23.43s0,.25-.5-.22c-.16-.14-.22-.38-.08-.78a4.15,4.15,0,0,1,.4-.82c.17-.3.22-.26.22-.26s.29.68-.11.89C29.31,27.83,29.48,28.13,29.36,28.48Zm1.31-1.29c.11.12-.42.21-.65-.31-.17-.35,0-.46-.11-.89s.73-1.14.88-1.26.35.48.34.68-.7.79-.75,1.14a.73.73,0,0,0,.29.64Zm.68,1.43c.37.24-.17-.71,0-1.16s.42-.53.5-.85.06-.61-.17-.63,0,.34-.23.46a1.31,1.31,0,0,0-.7.87,1.33,1.33,0,0,0,.57,1.32Zm.49-4.47a1.41,1.41,0,0,0,.07.89c.1.34.07.62,0,.39a5.13,5.13,0,0,1-.26-.87c0-.23-.44-.32-.34-.66s.32-.6.44-.91a5.51,5.51,0,0,1,.47-.9c.08-.14.37-.07.5.3a1.34,1.34,0,0,1-.24,1.06c-.24.44-.67.51-.63.7Zm.76-3.29c.37,0,.35-.2.37-.39a1.22,1.22,0,0,1,.89-.86.47.47,0,0,1,.46.47.4.4,0,0,1,0,.15c-.18.43-.46.35-.84.79s-.22.52-.29.73-.28.22-.27-.29c0-.18-.52,0-.66-.08-.36-.11-.41-.81-.72-1.27s-.64-.17-.83-.85c-.12-.45.1-.45-.18-.88a2.72,2.72,0,0,1-.44-.79c0-.16-.22-.58.42-1.07s.89-.29,1-.17a.87.87,0,0,1,.21.47c0,.3-.58.23-.86.61-.16.21-.32.41-.12.52s.47-.34.65-.27a1.21,1.21,0,0,0,.91-.26c.27-.16.36-.11.34.18s-.31.62-.71.83a1.06,1.06,0,0,0-.57,1.14c.12.27.29.32.39.07s.06-.63.6-.71.39-.44.64-.44.34.38.21.63-1,.66-1,1.2.2.54.41.54Zm.57-9.37c.28.06-.07-.19.24-.53.1-.12.4-.38.66-.33.06,0,.2.21,0,.57-.1.19,0,.67-.17.94a1.67,1.67,0,0,1-1.18.68c-.49.07-.82.24-.88.4s.41.31.57.38,0,.32-.33.37a.81.81,0,0,1-.82-.63,2.28,2.28,0,0,1,.45-1.45c.21-.16.4.22.58.28a1.53,1.53,0,0,0,1-.13c.13-.08.16-.27.05-.29-.28-.05-.56,0-.78-.12a2.63,2.63,0,0,1-.52-1c0-.18-.12-.48.13-.54a4.27,4.27,0,0,0,1-.43c.16-.11.4-.55.66-.62s.31.08.33.35-.1.61-.32.57-.15,0-.36.2-.56.54-.63.81a.35.35,0,0,0,.19.46s0,0,.08,0ZM28.09,8c.13-.28.34-.51,1-1,.26-.19.74-.53,1-.36s.65,0,.83.12.22.26.35-.09,0-.49.41-1A2.08,2.08,0,0,1,33.19,5c.59,0,1.4.23,1.55.85.07.33-.5.77-.39.78a.87.87,0,0,0,.32-.11.57.57,0,0,0,.24-.19c.1-.15,0-.34.24-.35s.11.28.1.34a.37.37,0,0,1-.14.22c-.14.07-.18.12,0,.09s.22-.27.41-.23.11.63.06.85-.23.69-.68.6-.85-.24-.9.09,0,.53-.06.71c-.11.35-.23.28-.32-.07-.05-.15-.14-.23-.16,0s0,.38-.22.49-1.17.16-1.42.69c-.15.28,0,.73-.17.86a.5.5,0,0,1-.76-.24,1.54,1.54,0,0,1,.42-1.18c.33-.31.22-.5.52-.81.08-.08,0-.45-.12-.45-.31,0,0,.58-.28.51s-.56-.5-.4-.61c.32-.2,0-.73-.17-.74s-.06.47,0,.82A1.43,1.43,0,0,1,30.37,9c-.54.3-.88.07-1.15.19s-.33.11-.3.27,0,.38-.1.45-1-.5-.71-.87c.08-.09.3,0,.46-.08s.18-.53.56-.59A2.31,2.31,0,0,0,30.28,8c.28-.33.28-.8.19-.85s0,.36-.26.5-.41,0-.77.16-1,.89-1.28.82c-.13,0-.26-.28-.07-.67Zm8.19,40.41a5.44,5.44,0,0,1,.59,2,21.15,21.15,0,0,1,.06,3.7,11.41,11.41,0,0,1-.48,2.27,17.43,17.43,0,0,1-.12-2.95c0-.46,0-2.5-.08-3.16A8.3,8.3,0,0,1,36.28,48.36Zm1.13,3.13a10,10,0,0,1,.13-2.4,12.28,12.28,0,0,1,.24,4,11.88,11.88,0,0,1-.36,2c-.09.22,0-2.76,0-3.55Zm.7-.06a.77.77,0,0,1,.34.58.72.72,0,0,1-.32.63,3.71,3.71,0,0,1,0-1.21ZM2.52,52.76s-.09-.1-.09-.24,0-.24.09-.24.08.11.08.24S2.56,52.76,2.52,52.76Zm38-41.58c-.28-.39-.51-.5-.75-.84s-.06-.43-.07-.94c0-1.46-1.32-1.72-2.15-1.88-.63-.12-.89-.08-1-.33a7.56,7.56,0,0,0-.51-1.26A4.42,4.42,0,0,0,34.7,4.69a2.57,2.57,0,0,0-1.81-.4A3.57,3.57,0,0,0,31.42,5c-.69.58-.62,1-1,1a6.57,6.57,0,0,0-1.58.35c-.53.16-.61,0-.69-.18a2.37,2.37,0,0,0-.3-.94c-.28-.4-.71-.46-.62-1a2.86,2.86,0,0,0-.13-1.61c-.19-.37-.36-.22-.36-.6A1.86,1.86,0,0,0,26.36.88,1.94,1.94,0,0,0,24.74.53c-.48.08-.56.06-.66-.12a.87.87,0,0,0-1-.32c-.22.06-.34.32-.64.28S22.26,0,21.79.1c-.27.06-.36.39-.55.23S20.92,0,20.75,0s-.23.32-.41.32-.48-.38-1-.32a1.45,1.45,0,0,0-.46.14c-.33.13-.14-.34-.83-.08-.17.07-.35.64-.52.58a.92.92,0,0,0-.88-.17c-.29.13-.27.28-.69.28a2.07,2.07,0,0,0-1.42.1A1,1,0,0,0,13.89,2c.14.46.08,1.21.2,1.41s.1.56-.26.93-.49,1-.69,1.29-.53.11-.8,0a3.2,3.2,0,0,0-1.22-.44,1.46,1.46,0,0,1-1.29-.6A1.85,1.85,0,0,0,8.6,3.89a1.91,1.91,0,0,0-1.22.26c-.16.13-.44.52-.68.46a1.29,1.29,0,0,0-.84.18,2.68,2.68,0,0,0-.94.86,4.93,4.93,0,0,0-.47.8,2.8,2.8,0,0,1-.49.6c-.21.14-.8.69-1.26.72a1.61,1.61,0,0,0-.77.51c-.29.28-.29.93-.37,1.36s-.63.88-.86,1.1A2.78,2.78,0,0,0,0,12.42c.07.39.14.71.33.78s.31,0,.47.13a.46.46,0,0,1,0,.41c-.07.08.51.63.71.75s.41.06.49.25a7,7,0,0,0,.46.85c.17.25.09.29.37.64s.58.54.75.77.32.52.37.58.6.11,1,0a1.38,1.38,0,0,0,.84-.92c.06-.27.22-.46.22-.23a9.87,9.87,0,0,1,.12,1.08c0,.32-.24.29-.38.56s-.06.46-.11.7-.84.77-.87,1.63c0,.2.28.37,0,.64s-.2.52-.21,1.39c0,.58.21.42.08.63a1.38,1.38,0,0,0,.22,1.57c.33.35.39.19.23.55s.28,1.29.55,1.62.91.59.91,1.19.93,1.12,1,1.19,0,.87.23,1.2.89.39.69.85a5,5,0,0,0,0,2,38.88,38.88,0,0,0,.71,3.88c.12.74-.55,1.55-.48,3s-.31,2.63-.7,2.68-1-.21-1.54,0S5.89,43.88,5.84,44s-.82.39-1,.9A2.08,2.08,0,0,0,5,46.29c.09.17-.29.34-.47.44a1.11,1.11,0,0,0-.48.66c-.08.17-.28.1-.45.12a.81.81,0,0,0-.52.56,2.67,2.67,0,0,0,0,.63c0,.22-.17.28-.21.42s.08.8-.1,1a10.88,10.88,0,0,0,0,1.36,2.14,2.14,0,0,0-.47.48,1.76,1.76,0,0,0,0,1.24c.14.24.68.18.64.41a8.76,8.76,0,0,0,.22,2.4,11,11,0,0,1,.69,1.57c.12.34.46.31.61.48a1,1,0,0,0,.73.28c.55,0,1.65.32,2.11.28.24,0,.51,0,.44,0a1.4,1.4,0,0,0-.15,1.86A2.63,2.63,0,0,0,9,61.28c.31.08,12,.33,12,.33s9.66-.08,10.23-.12a3,3,0,0,0,1.41-.39,1.83,1.83,0,0,0,.89-1.54c-.07-.63-.12-.89,0-.91s.94-.26,1.63-.5a3.59,3.59,0,0,0,1.67-1.21c.06-.15.13-.71.47-.81s.14-.49.22-.62.39-.18.39-.6a8,8,0,0,1,.21-1.7c.08-.19.36-.36.52-.47s.15-1.2.07-1.31-.59-.23-.65-.76c0-.25.06-.59,0-.88s-.3-.34-.27-.58a.93.93,0,0,0-.21-.7c-.17-.14-.4-.08-.42-.21a.91.91,0,0,0-.4-.69c-.17-.09-.07-.23-.15-.47s-1-.48-.64-1.06a1.15,1.15,0,0,0-.59-1.6c-.22-.07-.06-.5-.27-.76A1.76,1.76,0,0,0,33.7,43a3.9,3.9,0,0,1-1.19-.05A2,2,0,0,1,32,41.6a6.56,6.56,0,0,0-.74-2.15,1.42,1.42,0,0,1,.1-1.48,8,8,0,0,0,.54-2.89c0-.51-.17-3,0-3,.81-.15.22-.68.62-1s-.1-.51.29-.76a1.18,1.18,0,0,0,.61-.83,3.8,3.8,0,0,1,.55-1c.15-.25,0-.57.09-.65.34-.21,1-.77,1-1.1s-.28-.52,0-.76a2.65,2.65,0,0,0,.69-1.26c.1-.58-.5-.26,0-.86a1.8,1.8,0,0,0,.38-1.58c-.12-.4-.36-.34-.19-.69a1.47,1.47,0,0,0,.09-.66,1.79,1.79,0,0,0-.38-.88c-.31-.39.17-.13.13-.55s-.45-.83-.54-1.07-.11-.43-.16-.61a4.52,4.52,0,0,0-.55-.75c-.14-.14-.31-.63.1-.62s.44.65.53.92.49.47.64.55a1,1,0,0,0,.82-.12,9.65,9.65,0,0,0,.84-.95c.2-.2.59-.4.69-.7a1.79,1.79,0,0,1,.49-.8c.25-.22.75-.5.93-.65a7.72,7.72,0,0,0,.82-.8,2.9,2.9,0,0,0,.71-1.24c.14-.54-.26-1-.63-1.48Z"/><path id="Path_293" data-name="Path 293" class="cls-1" d="M9.63,12.93h0Z"/><path id="Path_294" data-name="Path 294" class="cls-1" d="M9.61,12.93h0Z"/><path id="Path_295" data-name="Path 295" class="cls-1" d="M16.89,8.27c-.05,0-.12-.15-.27-.31C16.62,8,16.8,8.25,16.89,8.27Z"/><path id="Path_296" data-name="Path 296" class="cls-1" d="M20.67,67.23a.48.48,0,0,1,.12,0,2,2,0,0,1,.68.1v.55a2.47,2.47,0,0,1-.47.29,2.19,2.19,0,0,1-.5.14l-.26,0c-.29,0-.43-.12-.43-.36a.79.79,0,0,1,.86-.76ZM30.53,66h1.3v1.27a.75.75,0,0,1-.4.66,1.43,1.43,0,0,1-.8.25,1,1,0,0,1-.45-.13c-.2-.1-.29-.22-.29-.35a.12.12,0,0,1,.1-.12l.29-.06c.29-.12.43-.27.43-.46l-.05-.29-.08-.38a1.74,1.74,0,0,1,0-.39ZM16.41,66h1.53v1.57H16.41Zm-3.83,0h1.31v1.27a.76.76,0,0,1-.41.66,1.4,1.4,0,0,1-.79.25,1.06,1.06,0,0,1-.46-.13C12,68,12,67.83,12,67.7a.12.12,0,0,1,.1-.12l.29-.06c.28-.12.42-.27.42-.46l0-.29-.08-.38a1.76,1.76,0,0,1-.06-.39ZM6.2,66H7.87v1.33A1.53,1.53,0,0,1,7,67.5H6.5a.4.4,0,0,1-.3-.09V66Zm18.14-.52V66H28v1l-2,0-.11,0c-.05,0-.07,0-.07.07v0l0,0a2.32,2.32,0,0,1,.68.93.47.47,0,0,1-.39.53.28.28,0,0,1-.13,0,.62.62,0,0,1-.4-.13,2.52,2.52,0,0,1-.35-.3,2,2,0,0,1-.33-.57l-.16-.36q-.09-.18-.21-.18c-.07,0-.1.05-.1.14v.07l.19.45a3.34,3.34,0,0,0,1.15,1.41,1.36,1.36,0,0,0,.65.16.57.57,0,0,0,.57-.57v-.06a1,1,0,0,0-.11-.51l-.21-.38v-.07s.05-.06.14-.07a1,1,0,0,1,.24,0H28v1.78a.31.31,0,0,0,.14.23,3.82,3.82,0,0,0,.47.35s.06-.06.06-.16V66H30.2a.71.71,0,0,1,.11.4.51.51,0,0,1-.23.47,1.25,1.25,0,0,1-.54.12h-.25a.1.1,0,0,0-.09.11,1.87,1.87,0,0,0,.22.39l.22.33a1.67,1.67,0,0,0,1.35.91,1.16,1.16,0,0,0,.68-.18.11.11,0,0,1,.08,0s.06,0,.06.1v.25l0,.26,0,.2a.66.66,0,0,0,.12.17l.36.36c.08.07.13.1.16.1s0,0,0-.08V66h3.12v1H34.17a1.06,1.06,0,0,0-.66.23.82.82,0,0,0-.34.69,1.47,1.47,0,0,0,.32.92l.44.59a2.13,2.13,0,0,0,.52.47.44.44,0,0,0,.24.11h0s.08,0,.08-.06v0a.55.55,0,0,0-.05-.17,1.37,1.37,0,0,0-.34-.34l-.3-.25a.94.94,0,0,1-.34-.77c0-.5.28-.78.85-.85h1v1.81a.32.32,0,0,0,.09.23l.22.18a2.43,2.43,0,0,0,.3.24s0-.09,0-.24V66h.42v-.52Zm-19.84,0V66H5.63v.86a.7.7,0,0,1-.06.19c-.06.11-.13.16-.2.16l-.21-.08A.5.5,0,0,0,4.92,67c-.16,0-.24.13-.24.37a2.06,2.06,0,0,0,.57,1.18l.53.64a5.28,5.28,0,0,0,.62.63.43.43,0,0,0,.3.13c.07,0,.1,0,.1-.09a.86.86,0,0,0-.38-.53L6,69.05c-.23-.22-.34-.39-.34-.5l0-.12.07-.14L6,67.9a.81.81,0,0,0,.11-.27l.18,0a.45.45,0,0,1,.14.1,1.44,1.44,0,0,0,.27.22,1.2,1.2,0,0,0,.46.07l.27,0A1.83,1.83,0,0,0,7.87,68v1.1a.76.76,0,0,0,.17.54l.17.16c.1.1.17.16.22.16a.07.07,0,0,0,0-.06.41.41,0,0,0,0-.11V66h3.79a.7.7,0,0,1,.1.4.5.5,0,0,1-.22.47,1.29,1.29,0,0,1-.54.12H10a1,1,0,0,0-.64.23.8.8,0,0,0-.34.68,1.49,1.49,0,0,0,.31.91l.44.57a2.11,2.11,0,0,0,.51.48.43.43,0,0,0,.24.1.07.07,0,0,0,.08-.07h0a.43.43,0,0,0-.05-.16,1.37,1.37,0,0,0-.34-.34L10,69.12a.94.94,0,0,1-.34-.76c0-.49.28-.76.84-.83h1l.2.3a1.66,1.66,0,0,0,1.35.91,1.18,1.18,0,0,0,.68-.18.11.11,0,0,1,.08,0s.06,0,.06.1l0,.25v.26l0,.2a.66.66,0,0,0,.12.17l.36.36a.32.32,0,0,0,.15.1s0,0,0-.08V66h1.26v1.51l-.09,0h-.23a.27.27,0,0,0-.3.22v.07a.7.7,0,0,0,.31.49l.3.35a.5.5,0,0,0,.38.22.35.35,0,0,0,.18-.05.18.18,0,0,0,.11-.14.49.49,0,0,0,0-.12v-.25a.17.17,0,0,1,.11-.17h1.37v1.2a1,1,0,0,0,.26.37c.15.17.26.25.31.23s.09,0,.08-.19V66h2.89v1.18l-.53-.33a.88.88,0,0,0-.47-.13,2.11,2.11,0,0,0-.51,0,.72.72,0,0,0-.63.77,1.43,1.43,0,0,0,.4.92,1.1,1.1,0,0,0,.9.44,1.36,1.36,0,0,0,.65-.16l.08,0a.11.11,0,0,1,.08,0l.06,0V69a1,1,0,0,0,.23.75c.16.16.27.24.31.24s.07,0,.07-.17V66h.52v-.53Zm28.82-2c-.16,0-.24,0-.24.1a.38.38,0,0,0,.09.18l.12.16c.17.23.3.34.41.34h.1l.09,0,.15,0,.15,0a.46.46,0,0,1,.2.05,1,1,0,0,1,.29.24l.48.61c.1.12.18.19.26.19a.09.09,0,0,0,.06-.07.58.58,0,0,0-.16-.31l-.57-.68a1.82,1.82,0,0,0-1.43-.74Zm-17.62,0c-.17,0-.25,0-.24.1a.31.31,0,0,0,.09.18l.11.16c.17.23.31.34.42.34h.09l.1,0,.15,0,.15,0a.46.46,0,0,1,.2.05,1,1,0,0,1,.29.24l.48.61c.09.12.18.19.26.19a.09.09,0,0,0,.06-.07.58.58,0,0,0-.16-.31l-.57-.68a1.85,1.85,0,0,0-1.43-.74Z"/></g></g><text class="cls-3" transform="translate(48.26 20.66)">Reproductive and Child Health 2.0</text><text class="cls-4" transform="translate(48.17 41.09) scale(1.07 1)">Health &amp; Family Welfare Department</text><text class="cls-4" transform="translate(48.28 60.82)">Government of India</text></g></g></svg>