<svg xmlns="http://www.w3.org/2000/svg" xmlns:xlink="http://www.w3.org/1999/xlink" viewBox="0 0 24.21 24.31"><defs><style>.cls-1{fill:#e0e0e0;}.cls-2{fill:url(#linear-gradient);}.cls-3,.cls-4{fill:#fff;}.cls-3{fill-rule:evenodd;}</style><linearGradient id="linear-gradient" x1="1073.35" y1="1569.3" x2="1073.35" y2="1580.67" gradientTransform="matrix(2.04, 0, 0, -2.04, -2178.39, 3226.24)" gradientUnits="userSpaceOnUse"><stop offset="0" stop-color="#20b038"/><stop offset="1" stop-color="#60d66a"/></linearGradient></defs><title>whatsaap</title><g id="Layer_2" data-name="Layer 2"><g id="Layer_1-2" data-name="Layer 1"><path class="cls-1" d="M20.68,3.53a12.05,12.05,0,0,0-19,14.54L0,24.31l6.39-1.67a12,12,0,0,0,5.76,1.47h0A12.06,12.06,0,0,0,20.68,3.53ZM12.15,22.07h0a10,10,0,0,1-5.1-1.39l-.36-.22-3.8,1,1-3.69-.24-.38a10,10,0,1,1,8.48,4.69Z"/><path class="cls-2" d="M.55,23.62l1.64-6A11.5,11.5,0,0,1,20.29,3.79a11.5,11.5,0,0,1-8.14,19.63h0A11.44,11.44,0,0,1,6.65,22l-6.1,1.6Z"/><path class="cls-3" d="M9.18,6.93c-.23-.49-.46-.5-.67-.51H7.94a1.13,1.13,0,0,0-.8.37,3.36,3.36,0,0,0-1,2.49,5.9,5.9,0,0,0,1.21,3.08,12.26,12.26,0,0,0,5.09,4.49c2.51,1,3,.79,3.57.74a3,3,0,0,0,2-1.41,2.55,2.55,0,0,0,.18-1.42,1.54,1.54,0,0,0-.58-.34c-.29-.15-1.76-.87-2-1s-.47-.15-.67.15-.77,1-.94,1.16-.35.23-.65.08a8.44,8.44,0,0,1-2.39-1.48,9,9,0,0,1-1.66-2.06.44.44,0,0,1,.13-.61c.14-.13.3-.35.45-.52a2,2,0,0,0,.3-.5.53.53,0,0,0,0-.52C10,9,9.44,7.52,9.18,6.93Z"/><path class="cls-4" d="M20.52,3.5A11.8,11.8,0,0,0,12.09,0,11.91,11.91,0,0,0,1.77,17.87L.07,24l6.32-1.66a11.88,11.88,0,0,0,5.69,1.45h0A11.91,11.91,0,0,0,20.52,3.5ZM12.09,21.82h0a9.89,9.89,0,0,1-5-1.38l-.37-.21-3.74,1,1-3.65-.24-.38a9.9,9.9,0,1,1,8.39,4.64Z"/></g></g></svg>